G04 #@! TF.GenerationSoftware,KiCad,Pcbnew,5.0.2+dfsg1-1*
G04 #@! TF.CreationDate,2019-05-02T19:47:23-04:00*
G04 #@! TF.ProjectId,v1,76312e6b-6963-4616-945f-706362585858,rev?*
G04 #@! TF.SameCoordinates,Original*
G04 #@! TF.FileFunction,Copper,L2,Bot*
G04 #@! TF.FilePolarity,Positive*
%FSLAX46Y46*%
G04 Gerber Fmt 4.6, Leading zero omitted, Abs format (unit mm)*
G04 Created by KiCad (PCBNEW 5.0.2+dfsg1-1) date Thu 02 May 2019 07:47:23 PM EDT*
%MOMM*%
%LPD*%
G01*
G04 APERTURE LIST*
G04 #@! TA.AperFunction,ComponentPad*
%ADD10R,2.032000X1.727200*%
G04 #@! TD*
G04 #@! TA.AperFunction,ComponentPad*
%ADD11O,2.032000X1.727200*%
G04 #@! TD*
G04 #@! TA.AperFunction,ComponentPad*
%ADD12O,1.700000X1.700000*%
G04 #@! TD*
G04 #@! TA.AperFunction,ComponentPad*
%ADD13R,1.700000X1.700000*%
G04 #@! TD*
G04 #@! TA.AperFunction,ComponentPad*
%ADD14C,1.600000*%
G04 #@! TD*
G04 #@! TA.AperFunction,ComponentPad*
%ADD15R,1.600000X1.600000*%
G04 #@! TD*
G04 #@! TA.AperFunction,ComponentPad*
%ADD16R,2.000000X1.905000*%
G04 #@! TD*
G04 #@! TA.AperFunction,ComponentPad*
%ADD17O,2.000000X1.905000*%
G04 #@! TD*
G04 #@! TA.AperFunction,SMDPad,CuDef*
%ADD18R,0.850000X0.912500*%
G04 #@! TD*
G04 #@! TA.AperFunction,SMDPad,CuDef*
%ADD19R,4.300000X4.300000*%
G04 #@! TD*
G04 #@! TA.AperFunction,ViaPad*
%ADD20C,0.800000*%
G04 #@! TD*
G04 #@! TA.AperFunction,Conductor*
%ADD21C,0.250000*%
G04 #@! TD*
G04 APERTURE END LIST*
D10*
G04 #@! TO.P,U3,1*
G04 #@! TO.N,Net-(C2-Pad1)*
X125420899Y-121920000D03*
D11*
G04 #@! TO.P,U3,2*
G04 #@! TO.N,Net-(J2-Pad5)*
X125420899Y-119380000D03*
G04 #@! TO.P,U3,3*
G04 #@! TO.N,N/C*
X125420899Y-116840000D03*
G04 #@! TO.P,U3,4*
G04 #@! TO.N,Earth*
X125420899Y-114300000D03*
G04 #@! TD*
D12*
G04 #@! TO.P,J2,6*
G04 #@! TO.N,Net-(J2-Pad6)*
X120340899Y-106587584D03*
G04 #@! TO.P,J2,5*
G04 #@! TO.N,Net-(J2-Pad5)*
X117800899Y-106587584D03*
G04 #@! TO.P,J2,4*
G04 #@! TO.N,Earth*
X115260899Y-106587584D03*
G04 #@! TO.P,J2,3*
G04 #@! TO.N,Net-(J2-Pad3)*
X112720899Y-106587584D03*
G04 #@! TO.P,J2,2*
G04 #@! TO.N,Net-(J2-Pad2)*
X110180899Y-106587584D03*
D13*
G04 #@! TO.P,J2,1*
G04 #@! TO.N,Net-(C2-Pad1)*
X107640899Y-106587584D03*
G04 #@! TD*
D14*
G04 #@! TO.P,C2,2*
G04 #@! TO.N,Earth*
X112720899Y-125637584D03*
D15*
G04 #@! TO.P,C2,1*
G04 #@! TO.N,Net-(C2-Pad1)*
X112720899Y-123137584D03*
G04 #@! TD*
G04 #@! TO.P,C1,1*
G04 #@! TO.N,Net-(C1-Pad1)*
X111450899Y-118017584D03*
D14*
G04 #@! TO.P,C1,2*
G04 #@! TO.N,Earth*
X113950899Y-118017584D03*
G04 #@! TD*
D12*
G04 #@! TO.P,Prog1,2*
G04 #@! TO.N,Earth*
X119070899Y-124460000D03*
D13*
G04 #@! TO.P,Prog1,1*
G04 #@! TO.N,Net-(J2-Pad6)*
X119070899Y-121920000D03*
G04 #@! TD*
G04 #@! TO.P,Power1,1*
G04 #@! TO.N,Net-(C1-Pad1)*
X119380000Y-115570000D03*
D12*
G04 #@! TO.P,Power1,2*
G04 #@! TO.N,Earth*
X119380000Y-118110000D03*
G04 #@! TD*
D13*
G04 #@! TO.P,TTL1,1*
G04 #@! TO.N,Earth*
X115260899Y-111667584D03*
D12*
G04 #@! TO.P,TTL1,2*
G04 #@! TO.N,Net-(J2-Pad3)*
X112720899Y-111667584D03*
G04 #@! TO.P,TTL1,3*
G04 #@! TO.N,Net-(J2-Pad2)*
X110180899Y-111667584D03*
G04 #@! TO.P,TTL1,4*
G04 #@! TO.N,Net-(C2-Pad1)*
X107640899Y-111667584D03*
G04 #@! TD*
D16*
G04 #@! TO.P,U2,1*
G04 #@! TO.N,Earth*
X107640899Y-123097584D03*
D17*
G04 #@! TO.P,U2,2*
G04 #@! TO.N,Net-(C2-Pad1)*
X107640899Y-120557584D03*
G04 #@! TO.P,U2,3*
G04 #@! TO.N,Net-(C1-Pad1)*
X107640899Y-118017584D03*
G04 #@! TD*
D18*
G04 #@! TO.P,U1,18*
G04 #@! TO.N,Net-(J1-Pad4)*
X105562500Y-88615000D03*
G04 #@! TO.P,U1,17*
G04 #@! TO.N,Net-(U1-Pad17)*
X105562500Y-90115000D03*
G04 #@! TO.P,U1,16*
G04 #@! TO.N,Net-(U1-Pad16)*
X105562500Y-91615000D03*
G04 #@! TO.P,U1,15*
G04 #@! TO.N,Net-(R1-Pad2)*
X105562500Y-93115000D03*
G04 #@! TO.P,U1,14*
G04 #@! TO.N,Net-(J1-Pad5)*
X105562500Y-94615000D03*
G04 #@! TO.P,U1,13*
G04 #@! TO.N,Net-(J1-Pad4)*
X105562500Y-96115000D03*
G04 #@! TO.P,U1,12*
G04 #@! TO.N,Net-(J1-Pad3)*
X105562500Y-97615000D03*
G04 #@! TO.P,U1,11*
G04 #@! TO.N,Net-(J1-Pad2)*
X105562500Y-99115000D03*
G04 #@! TO.P,U1,10*
G04 #@! TO.N,Net-(U1-Pad10)*
X105562500Y-100615000D03*
G04 #@! TO.P,U1,9*
G04 #@! TO.N,Net-(J1-Pad4)*
X123037500Y-100615000D03*
G04 #@! TO.P,U1,8*
G04 #@! TO.N,Net-(J1-Pad6)*
X123037500Y-99115000D03*
G04 #@! TO.P,U1,7*
G04 #@! TO.N,Net-(U1-Pad7)*
X123037500Y-97615000D03*
G04 #@! TO.P,U1,6*
G04 #@! TO.N,Net-(R5-Pad1)*
X123037500Y-96115000D03*
G04 #@! TO.P,U1,5*
G04 #@! TO.N,Net-(U1-Pad5)*
X123037500Y-94615000D03*
G04 #@! TO.P,U1,4*
G04 #@! TO.N,Net-(U1-Pad4)*
X123037500Y-93115000D03*
G04 #@! TO.P,U1,3*
G04 #@! TO.N,Net-(U1-Pad3)*
X123037500Y-91615000D03*
G04 #@! TO.P,U1,2*
G04 #@! TO.N,Net-(R2-Pad2)*
X123037500Y-90115000D03*
G04 #@! TO.P,U1,1*
G04 #@! TO.N,Net-(J1-Pad1)*
X123037500Y-88615000D03*
D19*
G04 #@! TO.P,U1,19*
G04 #@! TO.N,Net-(J1-Pad4)*
X113180000Y-95195000D03*
G04 #@! TD*
D20*
G04 #@! TO.N,Net-(R1-Pad2)*
X110429998Y-94397500D03*
G04 #@! TO.N,Net-(R2-Pad2)*
X123037500Y-90115000D03*
G04 #@! TO.N,Net-(R5-Pad1)*
X123037500Y-96115000D03*
G04 #@! TO.N,Net-(J1-Pad1)*
X120650000Y-94397500D03*
X116622500Y-90805000D03*
G04 #@! TO.N,Net-(J1-Pad6)*
X120650000Y-97155000D03*
X120650000Y-99890000D03*
G04 #@! TO.N,Net-(J1-Pad5)*
X107950000Y-94397500D03*
G04 #@! TO.N,Net-(J1-Pad4)*
X113180000Y-95195000D03*
X115570000Y-100330000D03*
X118110000Y-96320000D03*
G04 #@! TO.N,Net-(J1-Pad3)*
X113030000Y-100330000D03*
G04 #@! TO.N,Net-(J1-Pad2)*
X110490000Y-100330000D03*
G04 #@! TD*
D21*
G04 #@! TO.N,Net-(R1-Pad2)*
X105792500Y-93345000D02*
X105562500Y-93115000D01*
X105562500Y-93115000D02*
X109147498Y-93115000D01*
X109147498Y-93115000D02*
X110429998Y-94397500D01*
G04 #@! TO.N,Net-(C1-Pad1)*
X118280000Y-115570000D02*
X119380000Y-115570000D01*
X112848483Y-115570000D02*
X118280000Y-115570000D01*
X111450899Y-116967584D02*
X112848483Y-115570000D01*
X111450899Y-118017584D02*
X111450899Y-116967584D01*
G04 #@! TO.N,Net-(J1-Pad1)*
X120650000Y-91033750D02*
X120650000Y-94397500D01*
X123037500Y-88646250D02*
X120650000Y-91033750D01*
X123037500Y-88615000D02*
X123037500Y-88646250D01*
X120650000Y-91033750D02*
X116851250Y-91033750D01*
X116851250Y-91033750D02*
X116622500Y-90805000D01*
G04 #@! TO.N,Net-(J1-Pad6)*
X123037500Y-99115000D02*
X121425000Y-99115000D01*
X121425000Y-99115000D02*
X120650000Y-99890000D01*
G04 #@! TO.N,Net-(J1-Pad5)*
X105562500Y-94615000D02*
X107732500Y-94615000D01*
X107732500Y-94615000D02*
X107950000Y-94397500D01*
G04 #@! TO.N,Net-(J1-Pad4)*
X105562500Y-96083750D02*
X105562500Y-96115000D01*
X104812499Y-95333749D02*
X105562500Y-96083750D01*
X104812499Y-89396251D02*
X104812499Y-95333749D01*
X105562500Y-88646250D02*
X104812499Y-89396251D01*
X105562500Y-88615000D02*
X105562500Y-88646250D01*
X112260000Y-96115000D02*
X113180000Y-95195000D01*
X105562500Y-96115000D02*
X112260000Y-96115000D01*
X115855000Y-100615000D02*
X115570000Y-100330000D01*
X119380000Y-97590000D02*
X118110000Y-96320000D01*
X119380000Y-100615000D02*
X119380000Y-97590000D01*
X119380000Y-100615000D02*
X115855000Y-100615000D01*
X123037500Y-100615000D02*
X119380000Y-100615000D01*
G04 #@! TO.N,Net-(J1-Pad3)*
X105562500Y-97615000D02*
X110315000Y-97615000D01*
X110315000Y-97615000D02*
X113030000Y-100330000D01*
G04 #@! TO.N,Net-(J1-Pad2)*
X105562500Y-99115000D02*
X109275000Y-99115000D01*
X109275000Y-99115000D02*
X110490000Y-100330000D01*
G04 #@! TO.N,Net-(J2-Pad5)*
X117800899Y-106587584D02*
X119940889Y-104447594D01*
X119940889Y-104447594D02*
X122227594Y-104447594D01*
X122227594Y-104447594D02*
X123190000Y-105410000D01*
X125268499Y-119380000D02*
X125420899Y-119380000D01*
X123190000Y-117301501D02*
X125268499Y-119380000D01*
X123190000Y-105410000D02*
X123190000Y-117301501D01*
G04 #@! TO.N,Net-(J2-Pad6)*
X119070899Y-121920000D02*
X120650000Y-121920000D01*
X120650000Y-121920000D02*
X121920000Y-120650000D01*
X121920000Y-120650000D02*
X121920000Y-107950000D01*
X121703315Y-107950000D02*
X120340899Y-106587584D01*
X121920000Y-107950000D02*
X121703315Y-107950000D01*
G04 #@! TD*
M02*
