G04 #@! TF.GenerationSoftware,KiCad,Pcbnew,5.0.2+dfsg1-1*
G04 #@! TF.CreationDate,2019-05-02T19:47:23-04:00*
G04 #@! TF.ProjectId,v1,76312e6b-6963-4616-945f-706362585858,rev?*
G04 #@! TF.SameCoordinates,Original*
G04 #@! TF.FileFunction,Legend,Top*
G04 #@! TF.FilePolarity,Positive*
%FSLAX46Y46*%
G04 Gerber Fmt 4.6, Leading zero omitted, Abs format (unit mm)*
G04 Created by KiCad (PCBNEW 5.0.2+dfsg1-1) date Thu 02 May 2019 07:47:23 PM EDT*
%MOMM*%
%LPD*%
G01*
G04 APERTURE LIST*
%ADD10C,0.150000*%
%ADD11C,0.120000*%
G04 APERTURE END LIST*
D10*
G04 #@! TO.C,J1*
X122150000Y-102100000D02*
X107250000Y-102100000D01*
X122150000Y-98560000D02*
X122150000Y-102100000D01*
X106450000Y-98560000D02*
X122150000Y-98560000D01*
X106450000Y-101300000D02*
X106450000Y-98560000D01*
X107250000Y-102100000D02*
X106450000Y-101300000D01*
G04 #@! TO.C,U3*
X126690899Y-120650000D02*
X124150899Y-120650000D01*
X126690899Y-113030000D02*
X126690899Y-120650000D01*
X124150899Y-113030000D02*
X126690899Y-113030000D01*
X124150899Y-120650000D02*
X124150899Y-113030000D01*
X126944899Y-123444000D02*
X126944899Y-121920000D01*
X123896899Y-123444000D02*
X126944899Y-123444000D01*
X123896899Y-121920000D02*
X123896899Y-123444000D01*
D11*
G04 #@! TO.C,R5*
X119020000Y-94230436D02*
X119020000Y-95434564D01*
X117200000Y-94230436D02*
X117200000Y-95434564D01*
G04 #@! TO.C,R4*
X108860000Y-96487064D02*
X108860000Y-95282936D01*
X107040000Y-96487064D02*
X107040000Y-95282936D01*
G04 #@! TO.C,R3*
X121560000Y-95282936D02*
X121560000Y-96487064D01*
X119740000Y-95282936D02*
X119740000Y-96487064D01*
G04 #@! TO.C,R2*
X117507936Y-91715000D02*
X118712064Y-91715000D01*
X117507936Y-89895000D02*
X118712064Y-89895000D01*
G04 #@! TO.C,R1*
X109580000Y-96487064D02*
X109580000Y-95282936D01*
X111400000Y-96487064D02*
X111400000Y-95282936D01*
G04 #@! TO.C,J2*
X106310899Y-107917584D02*
X106310899Y-106587584D01*
X107640899Y-107917584D02*
X106310899Y-107917584D01*
X108910899Y-107917584D02*
X108910899Y-105257584D01*
X108910899Y-105257584D02*
X121670899Y-105257584D01*
X108910899Y-107917584D02*
X121670899Y-107917584D01*
X121670899Y-107917584D02*
X121670899Y-105257584D01*
G04 #@! TO.C,C2*
X114280899Y-122075296D02*
X113830899Y-122075296D01*
X114055899Y-121850296D02*
X114055899Y-122300296D01*
X111660899Y-122267844D02*
G75*
G03X113780899Y-122267843I1060000J-2119740D01*
G01*
G04 #@! TO.C,C1*
X110581159Y-119077584D02*
G75*
G03X110581158Y-116957584I2119740J1060000D01*
G01*
X110163611Y-116682584D02*
X110613611Y-116682584D01*
X110388611Y-116457584D02*
X110388611Y-116907584D01*
G04 #@! TO.C,Prog1*
X117740899Y-120590000D02*
X119070899Y-120590000D01*
X117740899Y-121920000D02*
X117740899Y-120590000D01*
X117740899Y-123190000D02*
X120400899Y-123190000D01*
X120400899Y-123190000D02*
X120400899Y-125790000D01*
X117740899Y-123190000D02*
X117740899Y-125790000D01*
X117740899Y-125790000D02*
X120400899Y-125790000D01*
G04 #@! TO.C,Power1*
X118050000Y-119440000D02*
X120710000Y-119440000D01*
X118050000Y-116840000D02*
X118050000Y-119440000D01*
X120710000Y-116840000D02*
X120710000Y-119440000D01*
X118050000Y-116840000D02*
X120710000Y-116840000D01*
X118050000Y-115570000D02*
X118050000Y-114240000D01*
X118050000Y-114240000D02*
X119380000Y-114240000D01*
G04 #@! TO.C,TTL1*
X106310899Y-110337584D02*
X106310899Y-112997584D01*
X113990899Y-110337584D02*
X106310899Y-110337584D01*
X113990899Y-112997584D02*
X106310899Y-112997584D01*
X113990899Y-110337584D02*
X113990899Y-112997584D01*
X115260899Y-110337584D02*
X116590899Y-110337584D01*
X116590899Y-110337584D02*
X116590899Y-111667584D01*
G04 #@! TO.C,U2*
X104370899Y-125677584D02*
X104370899Y-115437584D01*
X109011899Y-125677584D02*
X109011899Y-115437584D01*
X104370899Y-125677584D02*
X109011899Y-125677584D01*
X104370899Y-115437584D02*
X109011899Y-115437584D01*
X105880899Y-125677584D02*
X105880899Y-115437584D01*
X104370899Y-122407584D02*
X105880899Y-122407584D01*
X104370899Y-118706584D02*
X105880899Y-118706584D01*
G04 #@! TO.C,J1*
D10*
X113966666Y-102552380D02*
X113966666Y-103266666D01*
X113919047Y-103409523D01*
X113823809Y-103504761D01*
X113680952Y-103552380D01*
X113585714Y-103552380D01*
X114966666Y-103552380D02*
X114395238Y-103552380D01*
X114680952Y-103552380D02*
X114680952Y-102552380D01*
X114585714Y-102695238D01*
X114490476Y-102790476D01*
X114395238Y-102838095D01*
G04 #@! TO.C,U3*
X132223279Y-118871904D02*
X133032803Y-118871904D01*
X133128041Y-118824285D01*
X133175660Y-118776666D01*
X133223279Y-118681428D01*
X133223279Y-118490952D01*
X133175660Y-118395714D01*
X133128041Y-118348095D01*
X133032803Y-118300476D01*
X132223279Y-118300476D01*
X132223279Y-117919523D02*
X132223279Y-117300476D01*
X132604232Y-117633809D01*
X132604232Y-117490952D01*
X132651851Y-117395714D01*
X132699470Y-117348095D01*
X132794708Y-117300476D01*
X133032803Y-117300476D01*
X133128041Y-117348095D01*
X133175660Y-117395714D01*
X133223279Y-117490952D01*
X133223279Y-117776666D01*
X133175660Y-117871904D01*
X133128041Y-117919523D01*
G04 #@! TO.C,R5*
X121102380Y-96269166D02*
X120626190Y-96602500D01*
X121102380Y-96840595D02*
X120102380Y-96840595D01*
X120102380Y-96459642D01*
X120150000Y-96364404D01*
X120197619Y-96316785D01*
X120292857Y-96269166D01*
X120435714Y-96269166D01*
X120530952Y-96316785D01*
X120578571Y-96364404D01*
X120626190Y-96459642D01*
X120626190Y-96840595D01*
X120102380Y-95364404D02*
X120102380Y-95840595D01*
X120578571Y-95888214D01*
X120530952Y-95840595D01*
X120483333Y-95745357D01*
X120483333Y-95507261D01*
X120530952Y-95412023D01*
X120578571Y-95364404D01*
X120673809Y-95316785D01*
X120911904Y-95316785D01*
X121007142Y-95364404D01*
X121054761Y-95412023D01*
X121102380Y-95507261D01*
X121102380Y-95745357D01*
X121054761Y-95840595D01*
X121007142Y-95888214D01*
G04 #@! TO.C,R4*
X108402380Y-92024166D02*
X107926190Y-92357500D01*
X108402380Y-92595595D02*
X107402380Y-92595595D01*
X107402380Y-92214642D01*
X107450000Y-92119404D01*
X107497619Y-92071785D01*
X107592857Y-92024166D01*
X107735714Y-92024166D01*
X107830952Y-92071785D01*
X107878571Y-92119404D01*
X107926190Y-92214642D01*
X107926190Y-92595595D01*
X107735714Y-91167023D02*
X108402380Y-91167023D01*
X107354761Y-91405119D02*
X108069047Y-91643214D01*
X108069047Y-91024166D01*
G04 #@! TO.C,R3*
X118562380Y-94999166D02*
X118086190Y-95332500D01*
X118562380Y-95570595D02*
X117562380Y-95570595D01*
X117562380Y-95189642D01*
X117610000Y-95094404D01*
X117657619Y-95046785D01*
X117752857Y-94999166D01*
X117895714Y-94999166D01*
X117990952Y-95046785D01*
X118038571Y-95094404D01*
X118086190Y-95189642D01*
X118086190Y-95570595D01*
X117562380Y-94665833D02*
X117562380Y-94046785D01*
X117943333Y-94380119D01*
X117943333Y-94237261D01*
X117990952Y-94142023D01*
X118038571Y-94094404D01*
X118133809Y-94046785D01*
X118371904Y-94046785D01*
X118467142Y-94094404D01*
X118514761Y-94142023D01*
X118562380Y-94237261D01*
X118562380Y-94522976D01*
X118514761Y-94618214D01*
X118467142Y-94665833D01*
G04 #@! TO.C,R2*
X117943333Y-89437380D02*
X117610000Y-88961190D01*
X117371904Y-89437380D02*
X117371904Y-88437380D01*
X117752857Y-88437380D01*
X117848095Y-88485000D01*
X117895714Y-88532619D01*
X117943333Y-88627857D01*
X117943333Y-88770714D01*
X117895714Y-88865952D01*
X117848095Y-88913571D01*
X117752857Y-88961190D01*
X117371904Y-88961190D01*
X118324285Y-88532619D02*
X118371904Y-88485000D01*
X118467142Y-88437380D01*
X118705238Y-88437380D01*
X118800476Y-88485000D01*
X118848095Y-88532619D01*
X118895714Y-88627857D01*
X118895714Y-88723095D01*
X118848095Y-88865952D01*
X118276666Y-89437380D01*
X118895714Y-89437380D01*
G04 #@! TO.C,R1*
X113482380Y-97321666D02*
X113006190Y-97655000D01*
X113482380Y-97893095D02*
X112482380Y-97893095D01*
X112482380Y-97512142D01*
X112530000Y-97416904D01*
X112577619Y-97369285D01*
X112672857Y-97321666D01*
X112815714Y-97321666D01*
X112910952Y-97369285D01*
X112958571Y-97416904D01*
X113006190Y-97512142D01*
X113006190Y-97893095D01*
X113482380Y-96369285D02*
X113482380Y-96940714D01*
X113482380Y-96655000D02*
X112482380Y-96655000D01*
X112625238Y-96750238D01*
X112720476Y-96845476D01*
X112768095Y-96940714D01*
G04 #@! TO.C,J2*
X104763279Y-106920917D02*
X105477565Y-106920917D01*
X105620422Y-106968536D01*
X105715660Y-107063774D01*
X105763279Y-107206631D01*
X105763279Y-107301869D01*
X104858518Y-106492345D02*
X104810899Y-106444726D01*
X104763279Y-106349488D01*
X104763279Y-106111393D01*
X104810899Y-106016155D01*
X104858518Y-105968536D01*
X104953756Y-105920917D01*
X105048994Y-105920917D01*
X105191851Y-105968536D01*
X105763279Y-106539964D01*
X105763279Y-105920917D01*
G04 #@! TO.C,C2*
X116578041Y-124554250D02*
X116625660Y-124601869D01*
X116673279Y-124744726D01*
X116673279Y-124839964D01*
X116625660Y-124982822D01*
X116530422Y-125078060D01*
X116435184Y-125125679D01*
X116244708Y-125173298D01*
X116101851Y-125173298D01*
X115911375Y-125125679D01*
X115816137Y-125078060D01*
X115720899Y-124982822D01*
X115673279Y-124839964D01*
X115673279Y-124744726D01*
X115720899Y-124601869D01*
X115768518Y-124554250D01*
X115768518Y-124173298D02*
X115720899Y-124125679D01*
X115673279Y-124030441D01*
X115673279Y-123792345D01*
X115720899Y-123697107D01*
X115768518Y-123649488D01*
X115863756Y-123601869D01*
X115958994Y-123601869D01*
X116101851Y-123649488D01*
X116673279Y-124220917D01*
X116673279Y-123601869D01*
G04 #@! TO.C,C1*
X112534232Y-114874726D02*
X112486613Y-114922345D01*
X112343756Y-114969964D01*
X112248518Y-114969964D01*
X112105660Y-114922345D01*
X112010422Y-114827107D01*
X111962803Y-114731869D01*
X111915184Y-114541393D01*
X111915184Y-114398536D01*
X111962803Y-114208060D01*
X112010422Y-114112822D01*
X112105660Y-114017584D01*
X112248518Y-113969964D01*
X112343756Y-113969964D01*
X112486613Y-114017584D01*
X112534232Y-114065203D01*
X113486613Y-114969964D02*
X112915184Y-114969964D01*
X113200899Y-114969964D02*
X113200899Y-113969964D01*
X113105660Y-114112822D01*
X113010422Y-114208060D01*
X112915184Y-114255679D01*
G04 #@! TO.C,Prog1*
X117118518Y-120042380D02*
X117118518Y-119042380D01*
X117499470Y-119042380D01*
X117594708Y-119090000D01*
X117642327Y-119137619D01*
X117689946Y-119232857D01*
X117689946Y-119375714D01*
X117642327Y-119470952D01*
X117594708Y-119518571D01*
X117499470Y-119566190D01*
X117118518Y-119566190D01*
X118118518Y-120042380D02*
X118118518Y-119375714D01*
X118118518Y-119566190D02*
X118166137Y-119470952D01*
X118213756Y-119423333D01*
X118308994Y-119375714D01*
X118404232Y-119375714D01*
X118880422Y-120042380D02*
X118785184Y-119994761D01*
X118737565Y-119947142D01*
X118689946Y-119851904D01*
X118689946Y-119566190D01*
X118737565Y-119470952D01*
X118785184Y-119423333D01*
X118880422Y-119375714D01*
X119023279Y-119375714D01*
X119118518Y-119423333D01*
X119166137Y-119470952D01*
X119213756Y-119566190D01*
X119213756Y-119851904D01*
X119166137Y-119947142D01*
X119118518Y-119994761D01*
X119023279Y-120042380D01*
X118880422Y-120042380D01*
X120070899Y-119375714D02*
X120070899Y-120185238D01*
X120023279Y-120280476D01*
X119975660Y-120328095D01*
X119880422Y-120375714D01*
X119737565Y-120375714D01*
X119642327Y-120328095D01*
X120070899Y-119994761D02*
X119975660Y-120042380D01*
X119785184Y-120042380D01*
X119689946Y-119994761D01*
X119642327Y-119947142D01*
X119594708Y-119851904D01*
X119594708Y-119566190D01*
X119642327Y-119470952D01*
X119689946Y-119423333D01*
X119785184Y-119375714D01*
X119975660Y-119375714D01*
X120070899Y-119423333D01*
X121070899Y-120042380D02*
X120499470Y-120042380D01*
X120785184Y-120042380D02*
X120785184Y-119042380D01*
X120689946Y-119185238D01*
X120594708Y-119280476D01*
X120499470Y-119328095D01*
G04 #@! TO.C,Power1*
X116927619Y-113692380D02*
X116927619Y-112692380D01*
X117308571Y-112692380D01*
X117403809Y-112740000D01*
X117451428Y-112787619D01*
X117499047Y-112882857D01*
X117499047Y-113025714D01*
X117451428Y-113120952D01*
X117403809Y-113168571D01*
X117308571Y-113216190D01*
X116927619Y-113216190D01*
X118070476Y-113692380D02*
X117975238Y-113644761D01*
X117927619Y-113597142D01*
X117880000Y-113501904D01*
X117880000Y-113216190D01*
X117927619Y-113120952D01*
X117975238Y-113073333D01*
X118070476Y-113025714D01*
X118213333Y-113025714D01*
X118308571Y-113073333D01*
X118356190Y-113120952D01*
X118403809Y-113216190D01*
X118403809Y-113501904D01*
X118356190Y-113597142D01*
X118308571Y-113644761D01*
X118213333Y-113692380D01*
X118070476Y-113692380D01*
X118737142Y-113025714D02*
X118927619Y-113692380D01*
X119118095Y-113216190D01*
X119308571Y-113692380D01*
X119499047Y-113025714D01*
X120260952Y-113644761D02*
X120165714Y-113692380D01*
X119975238Y-113692380D01*
X119880000Y-113644761D01*
X119832380Y-113549523D01*
X119832380Y-113168571D01*
X119880000Y-113073333D01*
X119975238Y-113025714D01*
X120165714Y-113025714D01*
X120260952Y-113073333D01*
X120308571Y-113168571D01*
X120308571Y-113263809D01*
X119832380Y-113359047D01*
X120737142Y-113692380D02*
X120737142Y-113025714D01*
X120737142Y-113216190D02*
X120784761Y-113120952D01*
X120832380Y-113073333D01*
X120927619Y-113025714D01*
X121022857Y-113025714D01*
X121880000Y-113692380D02*
X121308571Y-113692380D01*
X121594285Y-113692380D02*
X121594285Y-112692380D01*
X121499047Y-112835238D01*
X121403809Y-112930476D01*
X121308571Y-112978095D01*
G04 #@! TO.C,TTL1*
X117562380Y-112037619D02*
X117562380Y-111466190D01*
X118562380Y-111751904D02*
X117562380Y-111751904D01*
X117562380Y-111275714D02*
X117562380Y-110704285D01*
X118562380Y-110990000D02*
X117562380Y-110990000D01*
X118562380Y-109894761D02*
X118562380Y-110370952D01*
X117562380Y-110370952D01*
X118562380Y-109037619D02*
X118562380Y-109609047D01*
X118562380Y-109323333D02*
X117562380Y-109323333D01*
X117705238Y-109418571D01*
X117800476Y-109513809D01*
X117848095Y-109609047D01*
G04 #@! TO.C,U2*
X109942380Y-121411904D02*
X110751904Y-121411904D01*
X110847142Y-121364285D01*
X110894761Y-121316666D01*
X110942380Y-121221428D01*
X110942380Y-121030952D01*
X110894761Y-120935714D01*
X110847142Y-120888095D01*
X110751904Y-120840476D01*
X109942380Y-120840476D01*
X110037619Y-120411904D02*
X109990000Y-120364285D01*
X109942380Y-120269047D01*
X109942380Y-120030952D01*
X109990000Y-119935714D01*
X110037619Y-119888095D01*
X110132857Y-119840476D01*
X110228095Y-119840476D01*
X110370952Y-119888095D01*
X110942380Y-120459523D01*
X110942380Y-119840476D01*
G04 #@! TD*
M02*
