G04 #@! TF.GenerationSoftware,KiCad,Pcbnew,5.0.2+dfsg1-1*
G04 #@! TF.CreationDate,2019-05-02T19:47:23-04:00*
G04 #@! TF.ProjectId,v1,76312e6b-6963-4616-945f-706362585858,rev?*
G04 #@! TF.SameCoordinates,Original*
G04 #@! TF.FileFunction,Paste,Top*
G04 #@! TF.FilePolarity,Positive*
%FSLAX46Y46*%
G04 Gerber Fmt 4.6, Leading zero omitted, Abs format (unit mm)*
G04 Created by KiCad (PCBNEW 5.0.2+dfsg1-1) date Thu 02 May 2019 07:47:23 PM EDT*
%MOMM*%
%LPD*%
G01*
G04 APERTURE LIST*
%ADD10R,2.000000X2.540000*%
%ADD11C,0.100000*%
%ADD12C,1.425000*%
G04 APERTURE END LIST*
D10*
G04 #@! TO.C,J1*
X120650000Y-100330000D03*
X118110000Y-100330000D03*
X115570000Y-100330000D03*
X113030000Y-100330000D03*
X110490000Y-100330000D03*
X107950000Y-100330000D03*
G04 #@! TD*
D11*
G04 #@! TO.C,R5*
G36*
X118759504Y-92633704D02*
X118783773Y-92637304D01*
X118807571Y-92643265D01*
X118830671Y-92651530D01*
X118852849Y-92662020D01*
X118873893Y-92674633D01*
X118893598Y-92689247D01*
X118911777Y-92705723D01*
X118928253Y-92723902D01*
X118942867Y-92743607D01*
X118955480Y-92764651D01*
X118965970Y-92786829D01*
X118974235Y-92809929D01*
X118980196Y-92833727D01*
X118983796Y-92857996D01*
X118985000Y-92882500D01*
X118985000Y-93807500D01*
X118983796Y-93832004D01*
X118980196Y-93856273D01*
X118974235Y-93880071D01*
X118965970Y-93903171D01*
X118955480Y-93925349D01*
X118942867Y-93946393D01*
X118928253Y-93966098D01*
X118911777Y-93984277D01*
X118893598Y-94000753D01*
X118873893Y-94015367D01*
X118852849Y-94027980D01*
X118830671Y-94038470D01*
X118807571Y-94046735D01*
X118783773Y-94052696D01*
X118759504Y-94056296D01*
X118735000Y-94057500D01*
X117485000Y-94057500D01*
X117460496Y-94056296D01*
X117436227Y-94052696D01*
X117412429Y-94046735D01*
X117389329Y-94038470D01*
X117367151Y-94027980D01*
X117346107Y-94015367D01*
X117326402Y-94000753D01*
X117308223Y-93984277D01*
X117291747Y-93966098D01*
X117277133Y-93946393D01*
X117264520Y-93925349D01*
X117254030Y-93903171D01*
X117245765Y-93880071D01*
X117239804Y-93856273D01*
X117236204Y-93832004D01*
X117235000Y-93807500D01*
X117235000Y-92882500D01*
X117236204Y-92857996D01*
X117239804Y-92833727D01*
X117245765Y-92809929D01*
X117254030Y-92786829D01*
X117264520Y-92764651D01*
X117277133Y-92743607D01*
X117291747Y-92723902D01*
X117308223Y-92705723D01*
X117326402Y-92689247D01*
X117346107Y-92674633D01*
X117367151Y-92662020D01*
X117389329Y-92651530D01*
X117412429Y-92643265D01*
X117436227Y-92637304D01*
X117460496Y-92633704D01*
X117485000Y-92632500D01*
X118735000Y-92632500D01*
X118759504Y-92633704D01*
X118759504Y-92633704D01*
G37*
D12*
X118110000Y-93345000D03*
D11*
G36*
X118759504Y-95608704D02*
X118783773Y-95612304D01*
X118807571Y-95618265D01*
X118830671Y-95626530D01*
X118852849Y-95637020D01*
X118873893Y-95649633D01*
X118893598Y-95664247D01*
X118911777Y-95680723D01*
X118928253Y-95698902D01*
X118942867Y-95718607D01*
X118955480Y-95739651D01*
X118965970Y-95761829D01*
X118974235Y-95784929D01*
X118980196Y-95808727D01*
X118983796Y-95832996D01*
X118985000Y-95857500D01*
X118985000Y-96782500D01*
X118983796Y-96807004D01*
X118980196Y-96831273D01*
X118974235Y-96855071D01*
X118965970Y-96878171D01*
X118955480Y-96900349D01*
X118942867Y-96921393D01*
X118928253Y-96941098D01*
X118911777Y-96959277D01*
X118893598Y-96975753D01*
X118873893Y-96990367D01*
X118852849Y-97002980D01*
X118830671Y-97013470D01*
X118807571Y-97021735D01*
X118783773Y-97027696D01*
X118759504Y-97031296D01*
X118735000Y-97032500D01*
X117485000Y-97032500D01*
X117460496Y-97031296D01*
X117436227Y-97027696D01*
X117412429Y-97021735D01*
X117389329Y-97013470D01*
X117367151Y-97002980D01*
X117346107Y-96990367D01*
X117326402Y-96975753D01*
X117308223Y-96959277D01*
X117291747Y-96941098D01*
X117277133Y-96921393D01*
X117264520Y-96900349D01*
X117254030Y-96878171D01*
X117245765Y-96855071D01*
X117239804Y-96831273D01*
X117236204Y-96807004D01*
X117235000Y-96782500D01*
X117235000Y-95857500D01*
X117236204Y-95832996D01*
X117239804Y-95808727D01*
X117245765Y-95784929D01*
X117254030Y-95761829D01*
X117264520Y-95739651D01*
X117277133Y-95718607D01*
X117291747Y-95698902D01*
X117308223Y-95680723D01*
X117326402Y-95664247D01*
X117346107Y-95649633D01*
X117367151Y-95637020D01*
X117389329Y-95626530D01*
X117412429Y-95618265D01*
X117436227Y-95612304D01*
X117460496Y-95608704D01*
X117485000Y-95607500D01*
X118735000Y-95607500D01*
X118759504Y-95608704D01*
X118759504Y-95608704D01*
G37*
D12*
X118110000Y-96320000D03*
G04 #@! TD*
D11*
G04 #@! TO.C,R4*
G36*
X108599504Y-93686204D02*
X108623773Y-93689804D01*
X108647571Y-93695765D01*
X108670671Y-93704030D01*
X108692849Y-93714520D01*
X108713893Y-93727133D01*
X108733598Y-93741747D01*
X108751777Y-93758223D01*
X108768253Y-93776402D01*
X108782867Y-93796107D01*
X108795480Y-93817151D01*
X108805970Y-93839329D01*
X108814235Y-93862429D01*
X108820196Y-93886227D01*
X108823796Y-93910496D01*
X108825000Y-93935000D01*
X108825000Y-94860000D01*
X108823796Y-94884504D01*
X108820196Y-94908773D01*
X108814235Y-94932571D01*
X108805970Y-94955671D01*
X108795480Y-94977849D01*
X108782867Y-94998893D01*
X108768253Y-95018598D01*
X108751777Y-95036777D01*
X108733598Y-95053253D01*
X108713893Y-95067867D01*
X108692849Y-95080480D01*
X108670671Y-95090970D01*
X108647571Y-95099235D01*
X108623773Y-95105196D01*
X108599504Y-95108796D01*
X108575000Y-95110000D01*
X107325000Y-95110000D01*
X107300496Y-95108796D01*
X107276227Y-95105196D01*
X107252429Y-95099235D01*
X107229329Y-95090970D01*
X107207151Y-95080480D01*
X107186107Y-95067867D01*
X107166402Y-95053253D01*
X107148223Y-95036777D01*
X107131747Y-95018598D01*
X107117133Y-94998893D01*
X107104520Y-94977849D01*
X107094030Y-94955671D01*
X107085765Y-94932571D01*
X107079804Y-94908773D01*
X107076204Y-94884504D01*
X107075000Y-94860000D01*
X107075000Y-93935000D01*
X107076204Y-93910496D01*
X107079804Y-93886227D01*
X107085765Y-93862429D01*
X107094030Y-93839329D01*
X107104520Y-93817151D01*
X107117133Y-93796107D01*
X107131747Y-93776402D01*
X107148223Y-93758223D01*
X107166402Y-93741747D01*
X107186107Y-93727133D01*
X107207151Y-93714520D01*
X107229329Y-93704030D01*
X107252429Y-93695765D01*
X107276227Y-93689804D01*
X107300496Y-93686204D01*
X107325000Y-93685000D01*
X108575000Y-93685000D01*
X108599504Y-93686204D01*
X108599504Y-93686204D01*
G37*
D12*
X107950000Y-94397500D03*
D11*
G36*
X108599504Y-96661204D02*
X108623773Y-96664804D01*
X108647571Y-96670765D01*
X108670671Y-96679030D01*
X108692849Y-96689520D01*
X108713893Y-96702133D01*
X108733598Y-96716747D01*
X108751777Y-96733223D01*
X108768253Y-96751402D01*
X108782867Y-96771107D01*
X108795480Y-96792151D01*
X108805970Y-96814329D01*
X108814235Y-96837429D01*
X108820196Y-96861227D01*
X108823796Y-96885496D01*
X108825000Y-96910000D01*
X108825000Y-97835000D01*
X108823796Y-97859504D01*
X108820196Y-97883773D01*
X108814235Y-97907571D01*
X108805970Y-97930671D01*
X108795480Y-97952849D01*
X108782867Y-97973893D01*
X108768253Y-97993598D01*
X108751777Y-98011777D01*
X108733598Y-98028253D01*
X108713893Y-98042867D01*
X108692849Y-98055480D01*
X108670671Y-98065970D01*
X108647571Y-98074235D01*
X108623773Y-98080196D01*
X108599504Y-98083796D01*
X108575000Y-98085000D01*
X107325000Y-98085000D01*
X107300496Y-98083796D01*
X107276227Y-98080196D01*
X107252429Y-98074235D01*
X107229329Y-98065970D01*
X107207151Y-98055480D01*
X107186107Y-98042867D01*
X107166402Y-98028253D01*
X107148223Y-98011777D01*
X107131747Y-97993598D01*
X107117133Y-97973893D01*
X107104520Y-97952849D01*
X107094030Y-97930671D01*
X107085765Y-97907571D01*
X107079804Y-97883773D01*
X107076204Y-97859504D01*
X107075000Y-97835000D01*
X107075000Y-96910000D01*
X107076204Y-96885496D01*
X107079804Y-96861227D01*
X107085765Y-96837429D01*
X107094030Y-96814329D01*
X107104520Y-96792151D01*
X107117133Y-96771107D01*
X107131747Y-96751402D01*
X107148223Y-96733223D01*
X107166402Y-96716747D01*
X107186107Y-96702133D01*
X107207151Y-96689520D01*
X107229329Y-96679030D01*
X107252429Y-96670765D01*
X107276227Y-96664804D01*
X107300496Y-96661204D01*
X107325000Y-96660000D01*
X108575000Y-96660000D01*
X108599504Y-96661204D01*
X108599504Y-96661204D01*
G37*
D12*
X107950000Y-97372500D03*
G04 #@! TD*
D11*
G04 #@! TO.C,R3*
G36*
X121299504Y-93686204D02*
X121323773Y-93689804D01*
X121347571Y-93695765D01*
X121370671Y-93704030D01*
X121392849Y-93714520D01*
X121413893Y-93727133D01*
X121433598Y-93741747D01*
X121451777Y-93758223D01*
X121468253Y-93776402D01*
X121482867Y-93796107D01*
X121495480Y-93817151D01*
X121505970Y-93839329D01*
X121514235Y-93862429D01*
X121520196Y-93886227D01*
X121523796Y-93910496D01*
X121525000Y-93935000D01*
X121525000Y-94860000D01*
X121523796Y-94884504D01*
X121520196Y-94908773D01*
X121514235Y-94932571D01*
X121505970Y-94955671D01*
X121495480Y-94977849D01*
X121482867Y-94998893D01*
X121468253Y-95018598D01*
X121451777Y-95036777D01*
X121433598Y-95053253D01*
X121413893Y-95067867D01*
X121392849Y-95080480D01*
X121370671Y-95090970D01*
X121347571Y-95099235D01*
X121323773Y-95105196D01*
X121299504Y-95108796D01*
X121275000Y-95110000D01*
X120025000Y-95110000D01*
X120000496Y-95108796D01*
X119976227Y-95105196D01*
X119952429Y-95099235D01*
X119929329Y-95090970D01*
X119907151Y-95080480D01*
X119886107Y-95067867D01*
X119866402Y-95053253D01*
X119848223Y-95036777D01*
X119831747Y-95018598D01*
X119817133Y-94998893D01*
X119804520Y-94977849D01*
X119794030Y-94955671D01*
X119785765Y-94932571D01*
X119779804Y-94908773D01*
X119776204Y-94884504D01*
X119775000Y-94860000D01*
X119775000Y-93935000D01*
X119776204Y-93910496D01*
X119779804Y-93886227D01*
X119785765Y-93862429D01*
X119794030Y-93839329D01*
X119804520Y-93817151D01*
X119817133Y-93796107D01*
X119831747Y-93776402D01*
X119848223Y-93758223D01*
X119866402Y-93741747D01*
X119886107Y-93727133D01*
X119907151Y-93714520D01*
X119929329Y-93704030D01*
X119952429Y-93695765D01*
X119976227Y-93689804D01*
X120000496Y-93686204D01*
X120025000Y-93685000D01*
X121275000Y-93685000D01*
X121299504Y-93686204D01*
X121299504Y-93686204D01*
G37*
D12*
X120650000Y-94397500D03*
D11*
G36*
X121299504Y-96661204D02*
X121323773Y-96664804D01*
X121347571Y-96670765D01*
X121370671Y-96679030D01*
X121392849Y-96689520D01*
X121413893Y-96702133D01*
X121433598Y-96716747D01*
X121451777Y-96733223D01*
X121468253Y-96751402D01*
X121482867Y-96771107D01*
X121495480Y-96792151D01*
X121505970Y-96814329D01*
X121514235Y-96837429D01*
X121520196Y-96861227D01*
X121523796Y-96885496D01*
X121525000Y-96910000D01*
X121525000Y-97835000D01*
X121523796Y-97859504D01*
X121520196Y-97883773D01*
X121514235Y-97907571D01*
X121505970Y-97930671D01*
X121495480Y-97952849D01*
X121482867Y-97973893D01*
X121468253Y-97993598D01*
X121451777Y-98011777D01*
X121433598Y-98028253D01*
X121413893Y-98042867D01*
X121392849Y-98055480D01*
X121370671Y-98065970D01*
X121347571Y-98074235D01*
X121323773Y-98080196D01*
X121299504Y-98083796D01*
X121275000Y-98085000D01*
X120025000Y-98085000D01*
X120000496Y-98083796D01*
X119976227Y-98080196D01*
X119952429Y-98074235D01*
X119929329Y-98065970D01*
X119907151Y-98055480D01*
X119886107Y-98042867D01*
X119866402Y-98028253D01*
X119848223Y-98011777D01*
X119831747Y-97993598D01*
X119817133Y-97973893D01*
X119804520Y-97952849D01*
X119794030Y-97930671D01*
X119785765Y-97907571D01*
X119779804Y-97883773D01*
X119776204Y-97859504D01*
X119775000Y-97835000D01*
X119775000Y-96910000D01*
X119776204Y-96885496D01*
X119779804Y-96861227D01*
X119785765Y-96837429D01*
X119794030Y-96814329D01*
X119804520Y-96792151D01*
X119817133Y-96771107D01*
X119831747Y-96751402D01*
X119848223Y-96733223D01*
X119866402Y-96716747D01*
X119886107Y-96702133D01*
X119907151Y-96689520D01*
X119929329Y-96679030D01*
X119952429Y-96670765D01*
X119976227Y-96664804D01*
X120000496Y-96661204D01*
X120025000Y-96660000D01*
X121275000Y-96660000D01*
X121299504Y-96661204D01*
X121299504Y-96661204D01*
G37*
D12*
X120650000Y-97372500D03*
G04 #@! TD*
D11*
G04 #@! TO.C,R2*
G36*
X120084504Y-89931204D02*
X120108773Y-89934804D01*
X120132571Y-89940765D01*
X120155671Y-89949030D01*
X120177849Y-89959520D01*
X120198893Y-89972133D01*
X120218598Y-89986747D01*
X120236777Y-90003223D01*
X120253253Y-90021402D01*
X120267867Y-90041107D01*
X120280480Y-90062151D01*
X120290970Y-90084329D01*
X120299235Y-90107429D01*
X120305196Y-90131227D01*
X120308796Y-90155496D01*
X120310000Y-90180000D01*
X120310000Y-91430000D01*
X120308796Y-91454504D01*
X120305196Y-91478773D01*
X120299235Y-91502571D01*
X120290970Y-91525671D01*
X120280480Y-91547849D01*
X120267867Y-91568893D01*
X120253253Y-91588598D01*
X120236777Y-91606777D01*
X120218598Y-91623253D01*
X120198893Y-91637867D01*
X120177849Y-91650480D01*
X120155671Y-91660970D01*
X120132571Y-91669235D01*
X120108773Y-91675196D01*
X120084504Y-91678796D01*
X120060000Y-91680000D01*
X119135000Y-91680000D01*
X119110496Y-91678796D01*
X119086227Y-91675196D01*
X119062429Y-91669235D01*
X119039329Y-91660970D01*
X119017151Y-91650480D01*
X118996107Y-91637867D01*
X118976402Y-91623253D01*
X118958223Y-91606777D01*
X118941747Y-91588598D01*
X118927133Y-91568893D01*
X118914520Y-91547849D01*
X118904030Y-91525671D01*
X118895765Y-91502571D01*
X118889804Y-91478773D01*
X118886204Y-91454504D01*
X118885000Y-91430000D01*
X118885000Y-90180000D01*
X118886204Y-90155496D01*
X118889804Y-90131227D01*
X118895765Y-90107429D01*
X118904030Y-90084329D01*
X118914520Y-90062151D01*
X118927133Y-90041107D01*
X118941747Y-90021402D01*
X118958223Y-90003223D01*
X118976402Y-89986747D01*
X118996107Y-89972133D01*
X119017151Y-89959520D01*
X119039329Y-89949030D01*
X119062429Y-89940765D01*
X119086227Y-89934804D01*
X119110496Y-89931204D01*
X119135000Y-89930000D01*
X120060000Y-89930000D01*
X120084504Y-89931204D01*
X120084504Y-89931204D01*
G37*
D12*
X119597500Y-90805000D03*
D11*
G36*
X117109504Y-89931204D02*
X117133773Y-89934804D01*
X117157571Y-89940765D01*
X117180671Y-89949030D01*
X117202849Y-89959520D01*
X117223893Y-89972133D01*
X117243598Y-89986747D01*
X117261777Y-90003223D01*
X117278253Y-90021402D01*
X117292867Y-90041107D01*
X117305480Y-90062151D01*
X117315970Y-90084329D01*
X117324235Y-90107429D01*
X117330196Y-90131227D01*
X117333796Y-90155496D01*
X117335000Y-90180000D01*
X117335000Y-91430000D01*
X117333796Y-91454504D01*
X117330196Y-91478773D01*
X117324235Y-91502571D01*
X117315970Y-91525671D01*
X117305480Y-91547849D01*
X117292867Y-91568893D01*
X117278253Y-91588598D01*
X117261777Y-91606777D01*
X117243598Y-91623253D01*
X117223893Y-91637867D01*
X117202849Y-91650480D01*
X117180671Y-91660970D01*
X117157571Y-91669235D01*
X117133773Y-91675196D01*
X117109504Y-91678796D01*
X117085000Y-91680000D01*
X116160000Y-91680000D01*
X116135496Y-91678796D01*
X116111227Y-91675196D01*
X116087429Y-91669235D01*
X116064329Y-91660970D01*
X116042151Y-91650480D01*
X116021107Y-91637867D01*
X116001402Y-91623253D01*
X115983223Y-91606777D01*
X115966747Y-91588598D01*
X115952133Y-91568893D01*
X115939520Y-91547849D01*
X115929030Y-91525671D01*
X115920765Y-91502571D01*
X115914804Y-91478773D01*
X115911204Y-91454504D01*
X115910000Y-91430000D01*
X115910000Y-90180000D01*
X115911204Y-90155496D01*
X115914804Y-90131227D01*
X115920765Y-90107429D01*
X115929030Y-90084329D01*
X115939520Y-90062151D01*
X115952133Y-90041107D01*
X115966747Y-90021402D01*
X115983223Y-90003223D01*
X116001402Y-89986747D01*
X116021107Y-89972133D01*
X116042151Y-89959520D01*
X116064329Y-89949030D01*
X116087429Y-89940765D01*
X116111227Y-89934804D01*
X116135496Y-89931204D01*
X116160000Y-89930000D01*
X117085000Y-89930000D01*
X117109504Y-89931204D01*
X117109504Y-89931204D01*
G37*
D12*
X116622500Y-90805000D03*
G04 #@! TD*
D11*
G04 #@! TO.C,R1*
G36*
X111139504Y-96661204D02*
X111163773Y-96664804D01*
X111187571Y-96670765D01*
X111210671Y-96679030D01*
X111232849Y-96689520D01*
X111253893Y-96702133D01*
X111273598Y-96716747D01*
X111291777Y-96733223D01*
X111308253Y-96751402D01*
X111322867Y-96771107D01*
X111335480Y-96792151D01*
X111345970Y-96814329D01*
X111354235Y-96837429D01*
X111360196Y-96861227D01*
X111363796Y-96885496D01*
X111365000Y-96910000D01*
X111365000Y-97835000D01*
X111363796Y-97859504D01*
X111360196Y-97883773D01*
X111354235Y-97907571D01*
X111345970Y-97930671D01*
X111335480Y-97952849D01*
X111322867Y-97973893D01*
X111308253Y-97993598D01*
X111291777Y-98011777D01*
X111273598Y-98028253D01*
X111253893Y-98042867D01*
X111232849Y-98055480D01*
X111210671Y-98065970D01*
X111187571Y-98074235D01*
X111163773Y-98080196D01*
X111139504Y-98083796D01*
X111115000Y-98085000D01*
X109865000Y-98085000D01*
X109840496Y-98083796D01*
X109816227Y-98080196D01*
X109792429Y-98074235D01*
X109769329Y-98065970D01*
X109747151Y-98055480D01*
X109726107Y-98042867D01*
X109706402Y-98028253D01*
X109688223Y-98011777D01*
X109671747Y-97993598D01*
X109657133Y-97973893D01*
X109644520Y-97952849D01*
X109634030Y-97930671D01*
X109625765Y-97907571D01*
X109619804Y-97883773D01*
X109616204Y-97859504D01*
X109615000Y-97835000D01*
X109615000Y-96910000D01*
X109616204Y-96885496D01*
X109619804Y-96861227D01*
X109625765Y-96837429D01*
X109634030Y-96814329D01*
X109644520Y-96792151D01*
X109657133Y-96771107D01*
X109671747Y-96751402D01*
X109688223Y-96733223D01*
X109706402Y-96716747D01*
X109726107Y-96702133D01*
X109747151Y-96689520D01*
X109769329Y-96679030D01*
X109792429Y-96670765D01*
X109816227Y-96664804D01*
X109840496Y-96661204D01*
X109865000Y-96660000D01*
X111115000Y-96660000D01*
X111139504Y-96661204D01*
X111139504Y-96661204D01*
G37*
D12*
X110490000Y-97372500D03*
D11*
G36*
X111139504Y-93686204D02*
X111163773Y-93689804D01*
X111187571Y-93695765D01*
X111210671Y-93704030D01*
X111232849Y-93714520D01*
X111253893Y-93727133D01*
X111273598Y-93741747D01*
X111291777Y-93758223D01*
X111308253Y-93776402D01*
X111322867Y-93796107D01*
X111335480Y-93817151D01*
X111345970Y-93839329D01*
X111354235Y-93862429D01*
X111360196Y-93886227D01*
X111363796Y-93910496D01*
X111365000Y-93935000D01*
X111365000Y-94860000D01*
X111363796Y-94884504D01*
X111360196Y-94908773D01*
X111354235Y-94932571D01*
X111345970Y-94955671D01*
X111335480Y-94977849D01*
X111322867Y-94998893D01*
X111308253Y-95018598D01*
X111291777Y-95036777D01*
X111273598Y-95053253D01*
X111253893Y-95067867D01*
X111232849Y-95080480D01*
X111210671Y-95090970D01*
X111187571Y-95099235D01*
X111163773Y-95105196D01*
X111139504Y-95108796D01*
X111115000Y-95110000D01*
X109865000Y-95110000D01*
X109840496Y-95108796D01*
X109816227Y-95105196D01*
X109792429Y-95099235D01*
X109769329Y-95090970D01*
X109747151Y-95080480D01*
X109726107Y-95067867D01*
X109706402Y-95053253D01*
X109688223Y-95036777D01*
X109671747Y-95018598D01*
X109657133Y-94998893D01*
X109644520Y-94977849D01*
X109634030Y-94955671D01*
X109625765Y-94932571D01*
X109619804Y-94908773D01*
X109616204Y-94884504D01*
X109615000Y-94860000D01*
X109615000Y-93935000D01*
X109616204Y-93910496D01*
X109619804Y-93886227D01*
X109625765Y-93862429D01*
X109634030Y-93839329D01*
X109644520Y-93817151D01*
X109657133Y-93796107D01*
X109671747Y-93776402D01*
X109688223Y-93758223D01*
X109706402Y-93741747D01*
X109726107Y-93727133D01*
X109747151Y-93714520D01*
X109769329Y-93704030D01*
X109792429Y-93695765D01*
X109816227Y-93689804D01*
X109840496Y-93686204D01*
X109865000Y-93685000D01*
X111115000Y-93685000D01*
X111139504Y-93686204D01*
X111139504Y-93686204D01*
G37*
D12*
X110490000Y-94397500D03*
G04 #@! TD*
M02*
