G04 #@! TF.GenerationSoftware,KiCad,Pcbnew,5.0.2+dfsg1-1*
G04 #@! TF.CreationDate,2019-05-02T19:47:23-04:00*
G04 #@! TF.ProjectId,v1,76312e6b-6963-4616-945f-706362585858,rev?*
G04 #@! TF.SameCoordinates,Original*
G04 #@! TF.FileFunction,Soldermask,Top*
G04 #@! TF.FilePolarity,Negative*
%FSLAX46Y46*%
G04 Gerber Fmt 4.6, Leading zero omitted, Abs format (unit mm)*
G04 Created by KiCad (PCBNEW 5.0.2+dfsg1-1) date Thu 02 May 2019 07:47:23 PM EDT*
%MOMM*%
%LPD*%
G01*
G04 APERTURE LIST*
%ADD10C,0.100000*%
G04 APERTURE END LIST*
D10*
G36*
X112969127Y-124819287D02*
X113123999Y-124883437D01*
X113263380Y-124976569D01*
X113381914Y-125095103D01*
X113475046Y-125234484D01*
X113539196Y-125389356D01*
X113571899Y-125553768D01*
X113571899Y-125721400D01*
X113539196Y-125885812D01*
X113475046Y-126040684D01*
X113381914Y-126180065D01*
X113263380Y-126298599D01*
X113123999Y-126391731D01*
X112969127Y-126455881D01*
X112804715Y-126488584D01*
X112637083Y-126488584D01*
X112472671Y-126455881D01*
X112317799Y-126391731D01*
X112178418Y-126298599D01*
X112059884Y-126180065D01*
X111966752Y-126040684D01*
X111902602Y-125885812D01*
X111869899Y-125721400D01*
X111869899Y-125553768D01*
X111902602Y-125389356D01*
X111966752Y-125234484D01*
X112059884Y-125095103D01*
X112178418Y-124976569D01*
X112317799Y-124883437D01*
X112472671Y-124819287D01*
X112637083Y-124786584D01*
X112804715Y-124786584D01*
X112969127Y-124819287D01*
X112969127Y-124819287D01*
G37*
G36*
X119181341Y-123565518D02*
X119247526Y-123572037D01*
X119360752Y-123606384D01*
X119417366Y-123623557D01*
X119555986Y-123697652D01*
X119573890Y-123707222D01*
X119609628Y-123736552D01*
X119711085Y-123819814D01*
X119794347Y-123921271D01*
X119823677Y-123957009D01*
X119823678Y-123957011D01*
X119907342Y-124113533D01*
X119907342Y-124113534D01*
X119958862Y-124283373D01*
X119976258Y-124460000D01*
X119958862Y-124636627D01*
X119924515Y-124749853D01*
X119907342Y-124806467D01*
X119833247Y-124945087D01*
X119823677Y-124962991D01*
X119812533Y-124976570D01*
X119711085Y-125100186D01*
X119609628Y-125183448D01*
X119573890Y-125212778D01*
X119573888Y-125212779D01*
X119417366Y-125296443D01*
X119360752Y-125313616D01*
X119247526Y-125347963D01*
X119181341Y-125354482D01*
X119115159Y-125361000D01*
X119026639Y-125361000D01*
X118960457Y-125354482D01*
X118894272Y-125347963D01*
X118781046Y-125313616D01*
X118724432Y-125296443D01*
X118567910Y-125212779D01*
X118567908Y-125212778D01*
X118532170Y-125183448D01*
X118430713Y-125100186D01*
X118329265Y-124976570D01*
X118318121Y-124962991D01*
X118308551Y-124945087D01*
X118234456Y-124806467D01*
X118217283Y-124749853D01*
X118182936Y-124636627D01*
X118165540Y-124460000D01*
X118182936Y-124283373D01*
X118234456Y-124113534D01*
X118234456Y-124113533D01*
X118318120Y-123957011D01*
X118318121Y-123957009D01*
X118347451Y-123921271D01*
X118430713Y-123819814D01*
X118532170Y-123736552D01*
X118567908Y-123707222D01*
X118585812Y-123697652D01*
X118724432Y-123623557D01*
X118781046Y-123606384D01*
X118894272Y-123572037D01*
X118960457Y-123565518D01*
X119026639Y-123559000D01*
X119115159Y-123559000D01*
X119181341Y-123565518D01*
X119181341Y-123565518D01*
G37*
G36*
X108691899Y-124101084D02*
X106589899Y-124101084D01*
X106589899Y-122094084D01*
X108691899Y-122094084D01*
X108691899Y-124101084D01*
X108691899Y-124101084D01*
G37*
G36*
X113571899Y-123988584D02*
X111869899Y-123988584D01*
X111869899Y-122286584D01*
X113571899Y-122286584D01*
X113571899Y-123988584D01*
X113571899Y-123988584D01*
G37*
G36*
X126487899Y-122834600D02*
X124353899Y-122834600D01*
X124353899Y-121005400D01*
X126487899Y-121005400D01*
X126487899Y-122834600D01*
X126487899Y-122834600D01*
G37*
G36*
X119971899Y-122821000D02*
X118169899Y-122821000D01*
X118169899Y-121019000D01*
X119971899Y-121019000D01*
X119971899Y-122821000D01*
X119971899Y-122821000D01*
G37*
G36*
X107790582Y-119559293D02*
X107885119Y-119568604D01*
X108074280Y-119625985D01*
X108248611Y-119719167D01*
X108401414Y-119844569D01*
X108526816Y-119997372D01*
X108619998Y-120171703D01*
X108677379Y-120360864D01*
X108696754Y-120557584D01*
X108677379Y-120754304D01*
X108619998Y-120943465D01*
X108526816Y-121117796D01*
X108401414Y-121270599D01*
X108248611Y-121396001D01*
X108074280Y-121489183D01*
X107885119Y-121546564D01*
X107796663Y-121555276D01*
X107737695Y-121561084D01*
X107544103Y-121561084D01*
X107485135Y-121555276D01*
X107396679Y-121546564D01*
X107207518Y-121489183D01*
X107033187Y-121396001D01*
X106880384Y-121270599D01*
X106754982Y-121117796D01*
X106661800Y-120943465D01*
X106604419Y-120754304D01*
X106585044Y-120557584D01*
X106604419Y-120360864D01*
X106661800Y-120171703D01*
X106754982Y-119997372D01*
X106880384Y-119844569D01*
X107033187Y-119719167D01*
X107207518Y-119625985D01*
X107396679Y-119568604D01*
X107491216Y-119559293D01*
X107544103Y-119554084D01*
X107737695Y-119554084D01*
X107790582Y-119559293D01*
X107790582Y-119559293D01*
G37*
G36*
X125752593Y-118478633D02*
X125924993Y-118530931D01*
X125924995Y-118530932D01*
X126083882Y-118615859D01*
X126223148Y-118730151D01*
X126331992Y-118862778D01*
X126337439Y-118869416D01*
X126422368Y-119028306D01*
X126474666Y-119200706D01*
X126492324Y-119380000D01*
X126474666Y-119559294D01*
X126426168Y-119719167D01*
X126422367Y-119731696D01*
X126337440Y-119890583D01*
X126223148Y-120029849D01*
X126083882Y-120144141D01*
X126032317Y-120171703D01*
X125924993Y-120229069D01*
X125752593Y-120281367D01*
X125618230Y-120294600D01*
X125223568Y-120294600D01*
X125089205Y-120281367D01*
X124916805Y-120229069D01*
X124809481Y-120171703D01*
X124757916Y-120144141D01*
X124618650Y-120029849D01*
X124504358Y-119890583D01*
X124419431Y-119731696D01*
X124415630Y-119719167D01*
X124367132Y-119559294D01*
X124349474Y-119380000D01*
X124367132Y-119200706D01*
X124419430Y-119028306D01*
X124504359Y-118869416D01*
X124509807Y-118862778D01*
X124618650Y-118730151D01*
X124757916Y-118615859D01*
X124916803Y-118530932D01*
X124916805Y-118530931D01*
X125089205Y-118478633D01*
X125223568Y-118465400D01*
X125618230Y-118465400D01*
X125752593Y-118478633D01*
X125752593Y-118478633D01*
G37*
G36*
X107790582Y-117019293D02*
X107885119Y-117028604D01*
X108074280Y-117085985D01*
X108248611Y-117179167D01*
X108401414Y-117304569D01*
X108526816Y-117457372D01*
X108619998Y-117631703D01*
X108677379Y-117820864D01*
X108696754Y-118017584D01*
X108677379Y-118214304D01*
X108619998Y-118403465D01*
X108526816Y-118577796D01*
X108401414Y-118730599D01*
X108248611Y-118856001D01*
X108074280Y-118949183D01*
X107885119Y-119006564D01*
X107796663Y-119015276D01*
X107737695Y-119021084D01*
X107544103Y-119021084D01*
X107485135Y-119015276D01*
X107396679Y-119006564D01*
X107207518Y-118949183D01*
X107033187Y-118856001D01*
X106880384Y-118730599D01*
X106754982Y-118577796D01*
X106661800Y-118403465D01*
X106604419Y-118214304D01*
X106585044Y-118017584D01*
X106604419Y-117820864D01*
X106661800Y-117631703D01*
X106754982Y-117457372D01*
X106880384Y-117304569D01*
X107033187Y-117179167D01*
X107207518Y-117085985D01*
X107396679Y-117028604D01*
X107491216Y-117019293D01*
X107544103Y-117014084D01*
X107737695Y-117014084D01*
X107790582Y-117019293D01*
X107790582Y-117019293D01*
G37*
G36*
X119490443Y-117215519D02*
X119556627Y-117222037D01*
X119669853Y-117256384D01*
X119726467Y-117273557D01*
X119865087Y-117347652D01*
X119882991Y-117357222D01*
X119918729Y-117386552D01*
X120020186Y-117469814D01*
X120103448Y-117571271D01*
X120132778Y-117607009D01*
X120142348Y-117624913D01*
X120216443Y-117763533D01*
X120216443Y-117763534D01*
X120267963Y-117933373D01*
X120285359Y-118110000D01*
X120267963Y-118286627D01*
X120233616Y-118399853D01*
X120216443Y-118456467D01*
X120176640Y-118530932D01*
X120132778Y-118612991D01*
X120130424Y-118615859D01*
X120020186Y-118750186D01*
X119918729Y-118833448D01*
X119882991Y-118862778D01*
X119882989Y-118862779D01*
X119726467Y-118946443D01*
X119669853Y-118963616D01*
X119556627Y-118997963D01*
X119490443Y-119004481D01*
X119424260Y-119011000D01*
X119335740Y-119011000D01*
X119269557Y-119004481D01*
X119203373Y-118997963D01*
X119090147Y-118963616D01*
X119033533Y-118946443D01*
X118877011Y-118862779D01*
X118877009Y-118862778D01*
X118841271Y-118833448D01*
X118739814Y-118750186D01*
X118629576Y-118615859D01*
X118627222Y-118612991D01*
X118583360Y-118530932D01*
X118543557Y-118456467D01*
X118526384Y-118399853D01*
X118492037Y-118286627D01*
X118474641Y-118110000D01*
X118492037Y-117933373D01*
X118543557Y-117763534D01*
X118543557Y-117763533D01*
X118617652Y-117624913D01*
X118627222Y-117607009D01*
X118656552Y-117571271D01*
X118739814Y-117469814D01*
X118841271Y-117386552D01*
X118877009Y-117357222D01*
X118894913Y-117347652D01*
X119033533Y-117273557D01*
X119090147Y-117256384D01*
X119203373Y-117222037D01*
X119269557Y-117215519D01*
X119335740Y-117209000D01*
X119424260Y-117209000D01*
X119490443Y-117215519D01*
X119490443Y-117215519D01*
G37*
G36*
X112301899Y-118868584D02*
X110599899Y-118868584D01*
X110599899Y-117166584D01*
X112301899Y-117166584D01*
X112301899Y-118868584D01*
X112301899Y-118868584D01*
G37*
G36*
X114199127Y-117199287D02*
X114353999Y-117263437D01*
X114493380Y-117356569D01*
X114611914Y-117475103D01*
X114705046Y-117614484D01*
X114769196Y-117769356D01*
X114801899Y-117933768D01*
X114801899Y-118101400D01*
X114769196Y-118265812D01*
X114705046Y-118420684D01*
X114611914Y-118560065D01*
X114493380Y-118678599D01*
X114353999Y-118771731D01*
X114199127Y-118835881D01*
X114034715Y-118868584D01*
X113867083Y-118868584D01*
X113702671Y-118835881D01*
X113547799Y-118771731D01*
X113408418Y-118678599D01*
X113289884Y-118560065D01*
X113196752Y-118420684D01*
X113132602Y-118265812D01*
X113099899Y-118101400D01*
X113099899Y-117933768D01*
X113132602Y-117769356D01*
X113196752Y-117614484D01*
X113289884Y-117475103D01*
X113408418Y-117356569D01*
X113547799Y-117263437D01*
X113702671Y-117199287D01*
X113867083Y-117166584D01*
X114034715Y-117166584D01*
X114199127Y-117199287D01*
X114199127Y-117199287D01*
G37*
G36*
X125752593Y-115938633D02*
X125924993Y-115990931D01*
X125924995Y-115990932D01*
X126083882Y-116075859D01*
X126083884Y-116075860D01*
X126083883Y-116075860D01*
X126223148Y-116190151D01*
X126337439Y-116329416D01*
X126422368Y-116488306D01*
X126474666Y-116660706D01*
X126492324Y-116840000D01*
X126474666Y-117019294D01*
X126429985Y-117166584D01*
X126422367Y-117191696D01*
X126337440Y-117350583D01*
X126223148Y-117489849D01*
X126083882Y-117604141D01*
X126032317Y-117631703D01*
X125924993Y-117689069D01*
X125752593Y-117741367D01*
X125618230Y-117754600D01*
X125223568Y-117754600D01*
X125089205Y-117741367D01*
X124916805Y-117689069D01*
X124809481Y-117631703D01*
X124757916Y-117604141D01*
X124618650Y-117489849D01*
X124504358Y-117350583D01*
X124419431Y-117191696D01*
X124411813Y-117166584D01*
X124367132Y-117019294D01*
X124349474Y-116840000D01*
X124367132Y-116660706D01*
X124419430Y-116488306D01*
X124504359Y-116329416D01*
X124618650Y-116190151D01*
X124757915Y-116075860D01*
X124757914Y-116075860D01*
X124757916Y-116075859D01*
X124916803Y-115990932D01*
X124916805Y-115990931D01*
X125089205Y-115938633D01*
X125223568Y-115925400D01*
X125618230Y-115925400D01*
X125752593Y-115938633D01*
X125752593Y-115938633D01*
G37*
G36*
X120281000Y-116471000D02*
X118479000Y-116471000D01*
X118479000Y-114669000D01*
X120281000Y-114669000D01*
X120281000Y-116471000D01*
X120281000Y-116471000D01*
G37*
G36*
X125752593Y-113398633D02*
X125924993Y-113450931D01*
X125924995Y-113450932D01*
X126083882Y-113535859D01*
X126083884Y-113535860D01*
X126083883Y-113535860D01*
X126223148Y-113650151D01*
X126337439Y-113789416D01*
X126422368Y-113948306D01*
X126474666Y-114120706D01*
X126492324Y-114300000D01*
X126474666Y-114479294D01*
X126422368Y-114651694D01*
X126422367Y-114651696D01*
X126337440Y-114810583D01*
X126223148Y-114949849D01*
X126083882Y-115064141D01*
X125924995Y-115149068D01*
X125924993Y-115149069D01*
X125752593Y-115201367D01*
X125618230Y-115214600D01*
X125223568Y-115214600D01*
X125089205Y-115201367D01*
X124916805Y-115149069D01*
X124916803Y-115149068D01*
X124757916Y-115064141D01*
X124618650Y-114949849D01*
X124504358Y-114810583D01*
X124419431Y-114651696D01*
X124419430Y-114651694D01*
X124367132Y-114479294D01*
X124349474Y-114300000D01*
X124367132Y-114120706D01*
X124419430Y-113948306D01*
X124504359Y-113789416D01*
X124618650Y-113650151D01*
X124757915Y-113535860D01*
X124757914Y-113535860D01*
X124757916Y-113535859D01*
X124916803Y-113450932D01*
X124916805Y-113450931D01*
X125089205Y-113398633D01*
X125223568Y-113385400D01*
X125618230Y-113385400D01*
X125752593Y-113398633D01*
X125752593Y-113398633D01*
G37*
G36*
X107751341Y-110773102D02*
X107817526Y-110779621D01*
X107930752Y-110813968D01*
X107987366Y-110831141D01*
X108125986Y-110905236D01*
X108143890Y-110914806D01*
X108179628Y-110944136D01*
X108281085Y-111027398D01*
X108364347Y-111128855D01*
X108393677Y-111164593D01*
X108393678Y-111164595D01*
X108477342Y-111321117D01*
X108477342Y-111321118D01*
X108528862Y-111490957D01*
X108546258Y-111667584D01*
X108528862Y-111844211D01*
X108494515Y-111957437D01*
X108477342Y-112014051D01*
X108403247Y-112152671D01*
X108393677Y-112170575D01*
X108364347Y-112206313D01*
X108281085Y-112307770D01*
X108179628Y-112391032D01*
X108143890Y-112420362D01*
X108143888Y-112420363D01*
X107987366Y-112504027D01*
X107930752Y-112521200D01*
X107817526Y-112555547D01*
X107751342Y-112562065D01*
X107685159Y-112568584D01*
X107596639Y-112568584D01*
X107530456Y-112562065D01*
X107464272Y-112555547D01*
X107351046Y-112521200D01*
X107294432Y-112504027D01*
X107137910Y-112420363D01*
X107137908Y-112420362D01*
X107102170Y-112391032D01*
X107000713Y-112307770D01*
X106917451Y-112206313D01*
X106888121Y-112170575D01*
X106878551Y-112152671D01*
X106804456Y-112014051D01*
X106787283Y-111957437D01*
X106752936Y-111844211D01*
X106735540Y-111667584D01*
X106752936Y-111490957D01*
X106804456Y-111321118D01*
X106804456Y-111321117D01*
X106888120Y-111164595D01*
X106888121Y-111164593D01*
X106917451Y-111128855D01*
X107000713Y-111027398D01*
X107102170Y-110944136D01*
X107137908Y-110914806D01*
X107155812Y-110905236D01*
X107294432Y-110831141D01*
X107351046Y-110813968D01*
X107464272Y-110779621D01*
X107530457Y-110773102D01*
X107596639Y-110766584D01*
X107685159Y-110766584D01*
X107751341Y-110773102D01*
X107751341Y-110773102D01*
G37*
G36*
X112831341Y-110773102D02*
X112897526Y-110779621D01*
X113010752Y-110813968D01*
X113067366Y-110831141D01*
X113205986Y-110905236D01*
X113223890Y-110914806D01*
X113259628Y-110944136D01*
X113361085Y-111027398D01*
X113444347Y-111128855D01*
X113473677Y-111164593D01*
X113473678Y-111164595D01*
X113557342Y-111321117D01*
X113557342Y-111321118D01*
X113608862Y-111490957D01*
X113626258Y-111667584D01*
X113608862Y-111844211D01*
X113574515Y-111957437D01*
X113557342Y-112014051D01*
X113483247Y-112152671D01*
X113473677Y-112170575D01*
X113444347Y-112206313D01*
X113361085Y-112307770D01*
X113259628Y-112391032D01*
X113223890Y-112420362D01*
X113223888Y-112420363D01*
X113067366Y-112504027D01*
X113010752Y-112521200D01*
X112897526Y-112555547D01*
X112831342Y-112562065D01*
X112765159Y-112568584D01*
X112676639Y-112568584D01*
X112610456Y-112562065D01*
X112544272Y-112555547D01*
X112431046Y-112521200D01*
X112374432Y-112504027D01*
X112217910Y-112420363D01*
X112217908Y-112420362D01*
X112182170Y-112391032D01*
X112080713Y-112307770D01*
X111997451Y-112206313D01*
X111968121Y-112170575D01*
X111958551Y-112152671D01*
X111884456Y-112014051D01*
X111867283Y-111957437D01*
X111832936Y-111844211D01*
X111815540Y-111667584D01*
X111832936Y-111490957D01*
X111884456Y-111321118D01*
X111884456Y-111321117D01*
X111968120Y-111164595D01*
X111968121Y-111164593D01*
X111997451Y-111128855D01*
X112080713Y-111027398D01*
X112182170Y-110944136D01*
X112217908Y-110914806D01*
X112235812Y-110905236D01*
X112374432Y-110831141D01*
X112431046Y-110813968D01*
X112544272Y-110779621D01*
X112610457Y-110773102D01*
X112676639Y-110766584D01*
X112765159Y-110766584D01*
X112831341Y-110773102D01*
X112831341Y-110773102D01*
G37*
G36*
X116161899Y-112568584D02*
X114359899Y-112568584D01*
X114359899Y-110766584D01*
X116161899Y-110766584D01*
X116161899Y-112568584D01*
X116161899Y-112568584D01*
G37*
G36*
X110291341Y-110773102D02*
X110357526Y-110779621D01*
X110470752Y-110813968D01*
X110527366Y-110831141D01*
X110665986Y-110905236D01*
X110683890Y-110914806D01*
X110719628Y-110944136D01*
X110821085Y-111027398D01*
X110904347Y-111128855D01*
X110933677Y-111164593D01*
X110933678Y-111164595D01*
X111017342Y-111321117D01*
X111017342Y-111321118D01*
X111068862Y-111490957D01*
X111086258Y-111667584D01*
X111068862Y-111844211D01*
X111034515Y-111957437D01*
X111017342Y-112014051D01*
X110943247Y-112152671D01*
X110933677Y-112170575D01*
X110904347Y-112206313D01*
X110821085Y-112307770D01*
X110719628Y-112391032D01*
X110683890Y-112420362D01*
X110683888Y-112420363D01*
X110527366Y-112504027D01*
X110470752Y-112521200D01*
X110357526Y-112555547D01*
X110291342Y-112562065D01*
X110225159Y-112568584D01*
X110136639Y-112568584D01*
X110070456Y-112562065D01*
X110004272Y-112555547D01*
X109891046Y-112521200D01*
X109834432Y-112504027D01*
X109677910Y-112420363D01*
X109677908Y-112420362D01*
X109642170Y-112391032D01*
X109540713Y-112307770D01*
X109457451Y-112206313D01*
X109428121Y-112170575D01*
X109418551Y-112152671D01*
X109344456Y-112014051D01*
X109327283Y-111957437D01*
X109292936Y-111844211D01*
X109275540Y-111667584D01*
X109292936Y-111490957D01*
X109344456Y-111321118D01*
X109344456Y-111321117D01*
X109428120Y-111164595D01*
X109428121Y-111164593D01*
X109457451Y-111128855D01*
X109540713Y-111027398D01*
X109642170Y-110944136D01*
X109677908Y-110914806D01*
X109695812Y-110905236D01*
X109834432Y-110831141D01*
X109891046Y-110813968D01*
X110004272Y-110779621D01*
X110070457Y-110773102D01*
X110136639Y-110766584D01*
X110225159Y-110766584D01*
X110291341Y-110773102D01*
X110291341Y-110773102D01*
G37*
G36*
X115371341Y-105693102D02*
X115437526Y-105699621D01*
X115550752Y-105733968D01*
X115607366Y-105751141D01*
X115745986Y-105825236D01*
X115763890Y-105834806D01*
X115799628Y-105864136D01*
X115901085Y-105947398D01*
X115984347Y-106048855D01*
X116013677Y-106084593D01*
X116013678Y-106084595D01*
X116097342Y-106241117D01*
X116097342Y-106241118D01*
X116148862Y-106410957D01*
X116166258Y-106587584D01*
X116148862Y-106764211D01*
X116114515Y-106877437D01*
X116097342Y-106934051D01*
X116023247Y-107072671D01*
X116013677Y-107090575D01*
X115984347Y-107126313D01*
X115901085Y-107227770D01*
X115799628Y-107311032D01*
X115763890Y-107340362D01*
X115763888Y-107340363D01*
X115607366Y-107424027D01*
X115550752Y-107441200D01*
X115437526Y-107475547D01*
X115371341Y-107482066D01*
X115305159Y-107488584D01*
X115216639Y-107488584D01*
X115150457Y-107482066D01*
X115084272Y-107475547D01*
X114971046Y-107441200D01*
X114914432Y-107424027D01*
X114757910Y-107340363D01*
X114757908Y-107340362D01*
X114722170Y-107311032D01*
X114620713Y-107227770D01*
X114537451Y-107126313D01*
X114508121Y-107090575D01*
X114498551Y-107072671D01*
X114424456Y-106934051D01*
X114407283Y-106877437D01*
X114372936Y-106764211D01*
X114355540Y-106587584D01*
X114372936Y-106410957D01*
X114424456Y-106241118D01*
X114424456Y-106241117D01*
X114508120Y-106084595D01*
X114508121Y-106084593D01*
X114537451Y-106048855D01*
X114620713Y-105947398D01*
X114722170Y-105864136D01*
X114757908Y-105834806D01*
X114775812Y-105825236D01*
X114914432Y-105751141D01*
X114971046Y-105733968D01*
X115084272Y-105699621D01*
X115150457Y-105693102D01*
X115216639Y-105686584D01*
X115305159Y-105686584D01*
X115371341Y-105693102D01*
X115371341Y-105693102D01*
G37*
G36*
X108541899Y-107488584D02*
X106739899Y-107488584D01*
X106739899Y-105686584D01*
X108541899Y-105686584D01*
X108541899Y-107488584D01*
X108541899Y-107488584D01*
G37*
G36*
X110291341Y-105693102D02*
X110357526Y-105699621D01*
X110470752Y-105733968D01*
X110527366Y-105751141D01*
X110665986Y-105825236D01*
X110683890Y-105834806D01*
X110719628Y-105864136D01*
X110821085Y-105947398D01*
X110904347Y-106048855D01*
X110933677Y-106084593D01*
X110933678Y-106084595D01*
X111017342Y-106241117D01*
X111017342Y-106241118D01*
X111068862Y-106410957D01*
X111086258Y-106587584D01*
X111068862Y-106764211D01*
X111034515Y-106877437D01*
X111017342Y-106934051D01*
X110943247Y-107072671D01*
X110933677Y-107090575D01*
X110904347Y-107126313D01*
X110821085Y-107227770D01*
X110719628Y-107311032D01*
X110683890Y-107340362D01*
X110683888Y-107340363D01*
X110527366Y-107424027D01*
X110470752Y-107441200D01*
X110357526Y-107475547D01*
X110291341Y-107482066D01*
X110225159Y-107488584D01*
X110136639Y-107488584D01*
X110070457Y-107482066D01*
X110004272Y-107475547D01*
X109891046Y-107441200D01*
X109834432Y-107424027D01*
X109677910Y-107340363D01*
X109677908Y-107340362D01*
X109642170Y-107311032D01*
X109540713Y-107227770D01*
X109457451Y-107126313D01*
X109428121Y-107090575D01*
X109418551Y-107072671D01*
X109344456Y-106934051D01*
X109327283Y-106877437D01*
X109292936Y-106764211D01*
X109275540Y-106587584D01*
X109292936Y-106410957D01*
X109344456Y-106241118D01*
X109344456Y-106241117D01*
X109428120Y-106084595D01*
X109428121Y-106084593D01*
X109457451Y-106048855D01*
X109540713Y-105947398D01*
X109642170Y-105864136D01*
X109677908Y-105834806D01*
X109695812Y-105825236D01*
X109834432Y-105751141D01*
X109891046Y-105733968D01*
X110004272Y-105699621D01*
X110070457Y-105693102D01*
X110136639Y-105686584D01*
X110225159Y-105686584D01*
X110291341Y-105693102D01*
X110291341Y-105693102D01*
G37*
G36*
X112831341Y-105693102D02*
X112897526Y-105699621D01*
X113010752Y-105733968D01*
X113067366Y-105751141D01*
X113205986Y-105825236D01*
X113223890Y-105834806D01*
X113259628Y-105864136D01*
X113361085Y-105947398D01*
X113444347Y-106048855D01*
X113473677Y-106084593D01*
X113473678Y-106084595D01*
X113557342Y-106241117D01*
X113557342Y-106241118D01*
X113608862Y-106410957D01*
X113626258Y-106587584D01*
X113608862Y-106764211D01*
X113574515Y-106877437D01*
X113557342Y-106934051D01*
X113483247Y-107072671D01*
X113473677Y-107090575D01*
X113444347Y-107126313D01*
X113361085Y-107227770D01*
X113259628Y-107311032D01*
X113223890Y-107340362D01*
X113223888Y-107340363D01*
X113067366Y-107424027D01*
X113010752Y-107441200D01*
X112897526Y-107475547D01*
X112831341Y-107482066D01*
X112765159Y-107488584D01*
X112676639Y-107488584D01*
X112610457Y-107482066D01*
X112544272Y-107475547D01*
X112431046Y-107441200D01*
X112374432Y-107424027D01*
X112217910Y-107340363D01*
X112217908Y-107340362D01*
X112182170Y-107311032D01*
X112080713Y-107227770D01*
X111997451Y-107126313D01*
X111968121Y-107090575D01*
X111958551Y-107072671D01*
X111884456Y-106934051D01*
X111867283Y-106877437D01*
X111832936Y-106764211D01*
X111815540Y-106587584D01*
X111832936Y-106410957D01*
X111884456Y-106241118D01*
X111884456Y-106241117D01*
X111968120Y-106084595D01*
X111968121Y-106084593D01*
X111997451Y-106048855D01*
X112080713Y-105947398D01*
X112182170Y-105864136D01*
X112217908Y-105834806D01*
X112235812Y-105825236D01*
X112374432Y-105751141D01*
X112431046Y-105733968D01*
X112544272Y-105699621D01*
X112610457Y-105693102D01*
X112676639Y-105686584D01*
X112765159Y-105686584D01*
X112831341Y-105693102D01*
X112831341Y-105693102D01*
G37*
G36*
X117911341Y-105693102D02*
X117977526Y-105699621D01*
X118090752Y-105733968D01*
X118147366Y-105751141D01*
X118285986Y-105825236D01*
X118303890Y-105834806D01*
X118339628Y-105864136D01*
X118441085Y-105947398D01*
X118524347Y-106048855D01*
X118553677Y-106084593D01*
X118553678Y-106084595D01*
X118637342Y-106241117D01*
X118637342Y-106241118D01*
X118688862Y-106410957D01*
X118706258Y-106587584D01*
X118688862Y-106764211D01*
X118654515Y-106877437D01*
X118637342Y-106934051D01*
X118563247Y-107072671D01*
X118553677Y-107090575D01*
X118524347Y-107126313D01*
X118441085Y-107227770D01*
X118339628Y-107311032D01*
X118303890Y-107340362D01*
X118303888Y-107340363D01*
X118147366Y-107424027D01*
X118090752Y-107441200D01*
X117977526Y-107475547D01*
X117911341Y-107482066D01*
X117845159Y-107488584D01*
X117756639Y-107488584D01*
X117690457Y-107482066D01*
X117624272Y-107475547D01*
X117511046Y-107441200D01*
X117454432Y-107424027D01*
X117297910Y-107340363D01*
X117297908Y-107340362D01*
X117262170Y-107311032D01*
X117160713Y-107227770D01*
X117077451Y-107126313D01*
X117048121Y-107090575D01*
X117038551Y-107072671D01*
X116964456Y-106934051D01*
X116947283Y-106877437D01*
X116912936Y-106764211D01*
X116895540Y-106587584D01*
X116912936Y-106410957D01*
X116964456Y-106241118D01*
X116964456Y-106241117D01*
X117048120Y-106084595D01*
X117048121Y-106084593D01*
X117077451Y-106048855D01*
X117160713Y-105947398D01*
X117262170Y-105864136D01*
X117297908Y-105834806D01*
X117315812Y-105825236D01*
X117454432Y-105751141D01*
X117511046Y-105733968D01*
X117624272Y-105699621D01*
X117690457Y-105693102D01*
X117756639Y-105686584D01*
X117845159Y-105686584D01*
X117911341Y-105693102D01*
X117911341Y-105693102D01*
G37*
G36*
X120451341Y-105693102D02*
X120517526Y-105699621D01*
X120630752Y-105733968D01*
X120687366Y-105751141D01*
X120825986Y-105825236D01*
X120843890Y-105834806D01*
X120879628Y-105864136D01*
X120981085Y-105947398D01*
X121064347Y-106048855D01*
X121093677Y-106084593D01*
X121093678Y-106084595D01*
X121177342Y-106241117D01*
X121177342Y-106241118D01*
X121228862Y-106410957D01*
X121246258Y-106587584D01*
X121228862Y-106764211D01*
X121194515Y-106877437D01*
X121177342Y-106934051D01*
X121103247Y-107072671D01*
X121093677Y-107090575D01*
X121064347Y-107126313D01*
X120981085Y-107227770D01*
X120879628Y-107311032D01*
X120843890Y-107340362D01*
X120843888Y-107340363D01*
X120687366Y-107424027D01*
X120630752Y-107441200D01*
X120517526Y-107475547D01*
X120451341Y-107482066D01*
X120385159Y-107488584D01*
X120296639Y-107488584D01*
X120230457Y-107482066D01*
X120164272Y-107475547D01*
X120051046Y-107441200D01*
X119994432Y-107424027D01*
X119837910Y-107340363D01*
X119837908Y-107340362D01*
X119802170Y-107311032D01*
X119700713Y-107227770D01*
X119617451Y-107126313D01*
X119588121Y-107090575D01*
X119578551Y-107072671D01*
X119504456Y-106934051D01*
X119487283Y-106877437D01*
X119452936Y-106764211D01*
X119435540Y-106587584D01*
X119452936Y-106410957D01*
X119504456Y-106241118D01*
X119504456Y-106241117D01*
X119588120Y-106084595D01*
X119588121Y-106084593D01*
X119617451Y-106048855D01*
X119700713Y-105947398D01*
X119802170Y-105864136D01*
X119837908Y-105834806D01*
X119855812Y-105825236D01*
X119994432Y-105751141D01*
X120051046Y-105733968D01*
X120164272Y-105699621D01*
X120230457Y-105693102D01*
X120296639Y-105686584D01*
X120385159Y-105686584D01*
X120451341Y-105693102D01*
X120451341Y-105693102D01*
G37*
G36*
X121701000Y-101651000D02*
X119599000Y-101651000D01*
X119599000Y-99009000D01*
X121701000Y-99009000D01*
X121701000Y-101651000D01*
X121701000Y-101651000D01*
G37*
G36*
X116621000Y-101651000D02*
X114519000Y-101651000D01*
X114519000Y-99009000D01*
X116621000Y-99009000D01*
X116621000Y-101651000D01*
X116621000Y-101651000D01*
G37*
G36*
X119161000Y-101651000D02*
X117059000Y-101651000D01*
X117059000Y-99009000D01*
X119161000Y-99009000D01*
X119161000Y-101651000D01*
X119161000Y-101651000D01*
G37*
G36*
X114081000Y-101651000D02*
X111979000Y-101651000D01*
X111979000Y-99009000D01*
X114081000Y-99009000D01*
X114081000Y-101651000D01*
X114081000Y-101651000D01*
G37*
G36*
X111541000Y-101651000D02*
X109439000Y-101651000D01*
X109439000Y-99009000D01*
X111541000Y-99009000D01*
X111541000Y-101651000D01*
X111541000Y-101651000D01*
G37*
G36*
X109001000Y-101651000D02*
X106899000Y-101651000D01*
X106899000Y-99009000D01*
X109001000Y-99009000D01*
X109001000Y-101651000D01*
X109001000Y-101651000D01*
G37*
G36*
X111265562Y-96613181D02*
X111300477Y-96623773D01*
X111332665Y-96640978D01*
X111360873Y-96664127D01*
X111384022Y-96692335D01*
X111401227Y-96724523D01*
X111411819Y-96759438D01*
X111416000Y-96801895D01*
X111416000Y-97943105D01*
X111411819Y-97985562D01*
X111401227Y-98020477D01*
X111384022Y-98052665D01*
X111360873Y-98080873D01*
X111332665Y-98104022D01*
X111300477Y-98121227D01*
X111265562Y-98131819D01*
X111223105Y-98136000D01*
X109756895Y-98136000D01*
X109714438Y-98131819D01*
X109679523Y-98121227D01*
X109647335Y-98104022D01*
X109619127Y-98080873D01*
X109595978Y-98052665D01*
X109578773Y-98020477D01*
X109568181Y-97985562D01*
X109564000Y-97943105D01*
X109564000Y-96801895D01*
X109568181Y-96759438D01*
X109578773Y-96724523D01*
X109595978Y-96692335D01*
X109619127Y-96664127D01*
X109647335Y-96640978D01*
X109679523Y-96623773D01*
X109714438Y-96613181D01*
X109756895Y-96609000D01*
X111223105Y-96609000D01*
X111265562Y-96613181D01*
X111265562Y-96613181D01*
G37*
G36*
X121425562Y-96613181D02*
X121460477Y-96623773D01*
X121492665Y-96640978D01*
X121520873Y-96664127D01*
X121544022Y-96692335D01*
X121561227Y-96724523D01*
X121571819Y-96759438D01*
X121576000Y-96801895D01*
X121576000Y-97943105D01*
X121571819Y-97985562D01*
X121561227Y-98020477D01*
X121544022Y-98052665D01*
X121520873Y-98080873D01*
X121492665Y-98104022D01*
X121460477Y-98121227D01*
X121425562Y-98131819D01*
X121383105Y-98136000D01*
X119916895Y-98136000D01*
X119874438Y-98131819D01*
X119839523Y-98121227D01*
X119807335Y-98104022D01*
X119779127Y-98080873D01*
X119755978Y-98052665D01*
X119738773Y-98020477D01*
X119728181Y-97985562D01*
X119724000Y-97943105D01*
X119724000Y-96801895D01*
X119728181Y-96759438D01*
X119738773Y-96724523D01*
X119755978Y-96692335D01*
X119779127Y-96664127D01*
X119807335Y-96640978D01*
X119839523Y-96623773D01*
X119874438Y-96613181D01*
X119916895Y-96609000D01*
X121383105Y-96609000D01*
X121425562Y-96613181D01*
X121425562Y-96613181D01*
G37*
G36*
X108725562Y-96613181D02*
X108760477Y-96623773D01*
X108792665Y-96640978D01*
X108820873Y-96664127D01*
X108844022Y-96692335D01*
X108861227Y-96724523D01*
X108871819Y-96759438D01*
X108876000Y-96801895D01*
X108876000Y-97943105D01*
X108871819Y-97985562D01*
X108861227Y-98020477D01*
X108844022Y-98052665D01*
X108820873Y-98080873D01*
X108792665Y-98104022D01*
X108760477Y-98121227D01*
X108725562Y-98131819D01*
X108683105Y-98136000D01*
X107216895Y-98136000D01*
X107174438Y-98131819D01*
X107139523Y-98121227D01*
X107107335Y-98104022D01*
X107079127Y-98080873D01*
X107055978Y-98052665D01*
X107038773Y-98020477D01*
X107028181Y-97985562D01*
X107024000Y-97943105D01*
X107024000Y-96801895D01*
X107028181Y-96759438D01*
X107038773Y-96724523D01*
X107055978Y-96692335D01*
X107079127Y-96664127D01*
X107107335Y-96640978D01*
X107139523Y-96623773D01*
X107174438Y-96613181D01*
X107216895Y-96609000D01*
X108683105Y-96609000D01*
X108725562Y-96613181D01*
X108725562Y-96613181D01*
G37*
G36*
X118885562Y-95560681D02*
X118920477Y-95571273D01*
X118952665Y-95588478D01*
X118980873Y-95611627D01*
X119004022Y-95639835D01*
X119021227Y-95672023D01*
X119031819Y-95706938D01*
X119036000Y-95749395D01*
X119036000Y-96890605D01*
X119031819Y-96933062D01*
X119021227Y-96967977D01*
X119004022Y-97000165D01*
X118980873Y-97028373D01*
X118952665Y-97051522D01*
X118920477Y-97068727D01*
X118885562Y-97079319D01*
X118843105Y-97083500D01*
X117376895Y-97083500D01*
X117334438Y-97079319D01*
X117299523Y-97068727D01*
X117267335Y-97051522D01*
X117239127Y-97028373D01*
X117215978Y-97000165D01*
X117198773Y-96967977D01*
X117188181Y-96933062D01*
X117184000Y-96890605D01*
X117184000Y-95749395D01*
X117188181Y-95706938D01*
X117198773Y-95672023D01*
X117215978Y-95639835D01*
X117239127Y-95611627D01*
X117267335Y-95588478D01*
X117299523Y-95571273D01*
X117334438Y-95560681D01*
X117376895Y-95556500D01*
X118843105Y-95556500D01*
X118885562Y-95560681D01*
X118885562Y-95560681D01*
G37*
G36*
X111265562Y-93638181D02*
X111300477Y-93648773D01*
X111332665Y-93665978D01*
X111360873Y-93689127D01*
X111384022Y-93717335D01*
X111401227Y-93749523D01*
X111411819Y-93784438D01*
X111416000Y-93826895D01*
X111416000Y-94968105D01*
X111411819Y-95010562D01*
X111401227Y-95045477D01*
X111384022Y-95077665D01*
X111360873Y-95105873D01*
X111332665Y-95129022D01*
X111300477Y-95146227D01*
X111265562Y-95156819D01*
X111223105Y-95161000D01*
X109756895Y-95161000D01*
X109714438Y-95156819D01*
X109679523Y-95146227D01*
X109647335Y-95129022D01*
X109619127Y-95105873D01*
X109595978Y-95077665D01*
X109578773Y-95045477D01*
X109568181Y-95010562D01*
X109564000Y-94968105D01*
X109564000Y-93826895D01*
X109568181Y-93784438D01*
X109578773Y-93749523D01*
X109595978Y-93717335D01*
X109619127Y-93689127D01*
X109647335Y-93665978D01*
X109679523Y-93648773D01*
X109714438Y-93638181D01*
X109756895Y-93634000D01*
X111223105Y-93634000D01*
X111265562Y-93638181D01*
X111265562Y-93638181D01*
G37*
G36*
X108725562Y-93638181D02*
X108760477Y-93648773D01*
X108792665Y-93665978D01*
X108820873Y-93689127D01*
X108844022Y-93717335D01*
X108861227Y-93749523D01*
X108871819Y-93784438D01*
X108876000Y-93826895D01*
X108876000Y-94968105D01*
X108871819Y-95010562D01*
X108861227Y-95045477D01*
X108844022Y-95077665D01*
X108820873Y-95105873D01*
X108792665Y-95129022D01*
X108760477Y-95146227D01*
X108725562Y-95156819D01*
X108683105Y-95161000D01*
X107216895Y-95161000D01*
X107174438Y-95156819D01*
X107139523Y-95146227D01*
X107107335Y-95129022D01*
X107079127Y-95105873D01*
X107055978Y-95077665D01*
X107038773Y-95045477D01*
X107028181Y-95010562D01*
X107024000Y-94968105D01*
X107024000Y-93826895D01*
X107028181Y-93784438D01*
X107038773Y-93749523D01*
X107055978Y-93717335D01*
X107079127Y-93689127D01*
X107107335Y-93665978D01*
X107139523Y-93648773D01*
X107174438Y-93638181D01*
X107216895Y-93634000D01*
X108683105Y-93634000D01*
X108725562Y-93638181D01*
X108725562Y-93638181D01*
G37*
G36*
X121425562Y-93638181D02*
X121460477Y-93648773D01*
X121492665Y-93665978D01*
X121520873Y-93689127D01*
X121544022Y-93717335D01*
X121561227Y-93749523D01*
X121571819Y-93784438D01*
X121576000Y-93826895D01*
X121576000Y-94968105D01*
X121571819Y-95010562D01*
X121561227Y-95045477D01*
X121544022Y-95077665D01*
X121520873Y-95105873D01*
X121492665Y-95129022D01*
X121460477Y-95146227D01*
X121425562Y-95156819D01*
X121383105Y-95161000D01*
X119916895Y-95161000D01*
X119874438Y-95156819D01*
X119839523Y-95146227D01*
X119807335Y-95129022D01*
X119779127Y-95105873D01*
X119755978Y-95077665D01*
X119738773Y-95045477D01*
X119728181Y-95010562D01*
X119724000Y-94968105D01*
X119724000Y-93826895D01*
X119728181Y-93784438D01*
X119738773Y-93749523D01*
X119755978Y-93717335D01*
X119779127Y-93689127D01*
X119807335Y-93665978D01*
X119839523Y-93648773D01*
X119874438Y-93638181D01*
X119916895Y-93634000D01*
X121383105Y-93634000D01*
X121425562Y-93638181D01*
X121425562Y-93638181D01*
G37*
G36*
X118885562Y-92585681D02*
X118920477Y-92596273D01*
X118952665Y-92613478D01*
X118980873Y-92636627D01*
X119004022Y-92664835D01*
X119021227Y-92697023D01*
X119031819Y-92731938D01*
X119036000Y-92774395D01*
X119036000Y-93915605D01*
X119031819Y-93958062D01*
X119021227Y-93992977D01*
X119004022Y-94025165D01*
X118980873Y-94053373D01*
X118952665Y-94076522D01*
X118920477Y-94093727D01*
X118885562Y-94104319D01*
X118843105Y-94108500D01*
X117376895Y-94108500D01*
X117334438Y-94104319D01*
X117299523Y-94093727D01*
X117267335Y-94076522D01*
X117239127Y-94053373D01*
X117215978Y-94025165D01*
X117198773Y-93992977D01*
X117188181Y-93958062D01*
X117184000Y-93915605D01*
X117184000Y-92774395D01*
X117188181Y-92731938D01*
X117198773Y-92697023D01*
X117215978Y-92664835D01*
X117239127Y-92636627D01*
X117267335Y-92613478D01*
X117299523Y-92596273D01*
X117334438Y-92585681D01*
X117376895Y-92581500D01*
X118843105Y-92581500D01*
X118885562Y-92585681D01*
X118885562Y-92585681D01*
G37*
G36*
X120210562Y-89883181D02*
X120245477Y-89893773D01*
X120277665Y-89910978D01*
X120305873Y-89934127D01*
X120329022Y-89962335D01*
X120346227Y-89994523D01*
X120356819Y-90029438D01*
X120361000Y-90071895D01*
X120361000Y-91538105D01*
X120356819Y-91580562D01*
X120346227Y-91615477D01*
X120329022Y-91647665D01*
X120305873Y-91675873D01*
X120277665Y-91699022D01*
X120245477Y-91716227D01*
X120210562Y-91726819D01*
X120168105Y-91731000D01*
X119026895Y-91731000D01*
X118984438Y-91726819D01*
X118949523Y-91716227D01*
X118917335Y-91699022D01*
X118889127Y-91675873D01*
X118865978Y-91647665D01*
X118848773Y-91615477D01*
X118838181Y-91580562D01*
X118834000Y-91538105D01*
X118834000Y-90071895D01*
X118838181Y-90029438D01*
X118848773Y-89994523D01*
X118865978Y-89962335D01*
X118889127Y-89934127D01*
X118917335Y-89910978D01*
X118949523Y-89893773D01*
X118984438Y-89883181D01*
X119026895Y-89879000D01*
X120168105Y-89879000D01*
X120210562Y-89883181D01*
X120210562Y-89883181D01*
G37*
G36*
X117235562Y-89883181D02*
X117270477Y-89893773D01*
X117302665Y-89910978D01*
X117330873Y-89934127D01*
X117354022Y-89962335D01*
X117371227Y-89994523D01*
X117381819Y-90029438D01*
X117386000Y-90071895D01*
X117386000Y-91538105D01*
X117381819Y-91580562D01*
X117371227Y-91615477D01*
X117354022Y-91647665D01*
X117330873Y-91675873D01*
X117302665Y-91699022D01*
X117270477Y-91716227D01*
X117235562Y-91726819D01*
X117193105Y-91731000D01*
X116051895Y-91731000D01*
X116009438Y-91726819D01*
X115974523Y-91716227D01*
X115942335Y-91699022D01*
X115914127Y-91675873D01*
X115890978Y-91647665D01*
X115873773Y-91615477D01*
X115863181Y-91580562D01*
X115859000Y-91538105D01*
X115859000Y-90071895D01*
X115863181Y-90029438D01*
X115873773Y-89994523D01*
X115890978Y-89962335D01*
X115914127Y-89934127D01*
X115942335Y-89910978D01*
X115974523Y-89893773D01*
X116009438Y-89883181D01*
X116051895Y-89879000D01*
X117193105Y-89879000D01*
X117235562Y-89883181D01*
X117235562Y-89883181D01*
G37*
M02*
