M48
;DRILL file {KiCad 5.0.2+dfsg1-1} date Thu 02 May 2019 07:48:18 PM EDT
;FORMAT={-:-/ absolute / inch / decimal}
FMAT,2
INCH,TZ
T1C0.0157
T2C0.0315
T3C0.0394
T4C0.0400
T5C0.0433
%
G90
G05
T1
X4.25Y-3.7164
X4.3476Y-3.7164
X4.35Y-3.95
X4.45Y-3.95
X4.4559Y-3.7478
X4.55Y-3.95
X4.5914Y-3.575
X4.65Y-3.7921
X4.75Y-3.7164
X4.75Y-3.825
X4.75Y-3.9327
X4.844Y-3.5478
X4.844Y-3.7841
T2
X4.3878Y-4.6464
X4.4863Y-4.6464
X4.4378Y-4.8479
X4.4378Y-4.9464
T3
X4.6878Y-4.8
X4.6878Y-4.9
X4.2378Y-4.3964
X4.3378Y-4.3964
X4.4378Y-4.3964
X4.5378Y-4.3964
X4.2378Y-4.1964
X4.3378Y-4.1964
X4.4378Y-4.1964
X4.5378Y-4.1964
X4.6378Y-4.1964
X4.7378Y-4.1964
X4.7Y-4.55
X4.7Y-4.65
T4
X4.9378Y-4.5
X4.9378Y-4.6
X4.9378Y-4.7
X4.9378Y-4.8
T5
X4.2378Y-4.6464
X4.2378Y-4.7464
X4.2378Y-4.8464
T0
M30
